<svg width="20" height="20" viewBox="0 0 20 20" fill="none" xmlns="http://www.w3.org/2000/svg">
<g clip-path="url(#clip0_4118_20720)">
<path fill-rule="evenodd" clip-rule="evenodd" d="M1.66699 9.99996C1.66699 5.39746 5.39783 1.66663 10.0003 1.66663C14.6028 1.66663 18.3337 5.39746 18.3337 9.99996C18.3337 14.6025 14.6028 18.3333 10.0003 18.3333C5.39783 18.3333 1.66699 14.6025 1.66699 9.99996ZM10.0003 10.8333C9.77931 10.8333 9.56735 10.7455 9.41107 10.5892C9.25479 10.4329 9.16699 10.221 9.16699 9.99996V6.66663C9.16699 6.44561 9.25479 6.23365 9.41107 6.07737C9.56735 5.92109 9.77931 5.83329 10.0003 5.83329C10.2213 5.83329 10.4333 5.92109 10.5896 6.07737C10.7459 6.23365 10.8337 6.44561 10.8337 6.66663V9.99996C10.8337 10.221 10.7459 10.4329 10.5896 10.5892C10.4333 10.7455 10.2213 10.8333 10.0003 10.8333ZM8.75033 13.3333C8.75033 13.0018 8.88202 12.6838 9.11644 12.4494C9.35086 12.215 9.66881 12.0833 10.0003 12.0833H10.0087C10.3402 12.0833 10.6581 12.215 10.8925 12.4494C11.127 12.6838 11.2587 13.0018 11.2587 13.3333V13.3416C11.2587 13.6731 11.127 13.9911 10.8925 14.2255C10.6581 14.4599 10.3402 14.5916 10.0087 14.5916H10.0003C9.66881 14.5916 9.35086 14.4599 9.11644 14.2255C8.88202 13.9911 8.75033 13.6731 8.75033 13.3416V13.3333Z" fill="white"/>
</g>
<defs>
<clipPath id="clip0_4118_20720">
<rect width="20" height="20" fill="white"/>
</clipPath>
</defs>
</svg>
