<svg width="20" height="20" viewBox="0 0 20 20" fill="none" xmlns="http://www.w3.org/2000/svg">
<g clip-path="url(#clip0_670_16038)">
<path d="M14.1478 16.25C15.6121 15.2803 16.6897 13.8275 17.1926 12.1448C17.6956 10.4621 17.5921 8.65626 16.9002 7.04203C16.2083 5.42781 14.9718 4.1076 13.4063 3.31153C11.8408 2.51547 10.0456 2.29405 8.33361 2.68586M14.1478 16.25V13.3334M14.1478 16.25H17.0836M5.83361 3.76336C4.37437 4.73661 3.3024 6.19054 2.80411 7.87231C2.30583 9.55407 2.41276 11.3573 3.1063 12.9684C3.79984 14.5795 5.03612 15.8965 6.60016 16.6905C8.1642 17.4845 9.95705 17.7052 11.6669 17.3142M5.83361 3.76336V6.66669M5.83361 3.76336H2.91695" stroke="white" stroke-width="1.5" stroke-linecap="round" stroke-linejoin="round"/>
</g>
<defs>
<clipPath id="clip0_670_16038">
<rect width="20" height="20" fill="white"/>
</clipPath>
</defs>
</svg>
