<svg width="32" height="32" viewBox="0 0 32 32" fill="none" xmlns="http://www.w3.org/2000/svg">
<path d="M27.5523 4.63733L10.667 10.6667V20L11.6643 20.356L10.1617 23.3613C9.99074 23.703 9.89524 24.0775 9.88163 24.4593C9.86802 24.8411 9.93662 25.2214 10.0828 25.5744C10.2289 25.9274 10.4492 26.2449 10.7288 26.5053C11.0083 26.7658 11.3405 26.9631 11.703 27.084L17.1483 28.8987C17.7575 29.0973 18.4175 29.0716 19.0094 28.8264C19.6013 28.5812 20.0861 28.1325 20.3763 27.5613L22.1137 24.0867L27.5523 26.0293C27.7534 26.1011 27.9688 26.1235 28.1804 26.0946C28.392 26.0658 28.5935 25.9866 28.7681 25.8636C28.9427 25.7406 29.0852 25.5776 29.1836 25.3881C29.282 25.1986 29.3335 24.9882 29.3337 24.7747V5.892C29.3335 5.67847 29.282 5.46811 29.1836 5.27861C29.0852 5.08911 28.9427 4.92603 28.7681 4.80307C28.5935 4.68011 28.392 4.60087 28.1804 4.57203C27.9688 4.54319 27.7534 4.56559 27.5523 4.63733ZM17.991 26.3693L12.547 24.5547L14.1937 21.26L19.583 23.1853L17.991 26.3693ZM5.33366 20H8.00033V10.6667H5.33366C3.86299 10.6667 2.66699 11.8627 2.66699 13.3333V17.3333C2.66699 18.804 3.86299 20 5.33366 20Z" fill="#40BA21"/>
</svg>
