<svg width="16" height="16" viewBox="0 0 16 16" fill="none" xmlns="http://www.w3.org/2000/svg">
<g clip-path="url(#clip0_627_3304)">
<path d="M4.96656 4.076L8.89497 8.00526L4.96656 11.9345C4.87283 12.0283 4.79847 12.1396 4.74774 12.2621C4.69701 12.3846 4.6709 12.5159 4.6709 12.6485C4.6709 12.7811 4.69701 12.9124 4.74774 13.0349C4.79847 13.1574 4.87283 13.2687 4.96656 13.3624C5.0603 13.4562 5.17158 13.5305 5.29405 13.5813C5.41653 13.632 5.54779 13.6581 5.68036 13.6581C5.81292 13.6581 5.94419 13.632 6.06666 13.5813C6.18913 13.5305 6.30042 13.4562 6.39415 13.3624L11.0414 8.71414C11.4363 8.31919 11.4363 7.68119 11.0414 7.28624L6.39415 2.63797C6.30049 2.54409 6.18923 2.46961 6.06674 2.41879C5.94426 2.36798 5.81296 2.34182 5.68036 2.34182C5.54776 2.34182 5.41645 2.36798 5.29397 2.41879C5.17149 2.46961 5.06023 2.54409 4.96656 2.63797C4.58182 3.03292 4.5717 3.68105 4.96656 4.076Z" fill="#5F5F5F"/>
</g>
<defs>
<clipPath id="clip0_627_3304">
<rect width="16" height="16" fill="white"/>
</clipPath>
</defs>
</svg>
