<svg width="20" height="20" viewBox="0 0 20 20" fill="none" xmlns="http://www.w3.org/2000/svg">
<g clip-path="url(#clip0_1675_13738)">
<path d="M7.91699 10C8.91155 10 9.86538 9.60491 10.5686 8.90165C11.2719 8.19839 11.667 7.24456 11.667 6.25C11.667 5.25544 11.2719 4.30161 10.5686 3.59835C9.86538 2.89509 8.91155 2.5 7.91699 2.5C6.92243 2.5 5.9686 2.89509 5.26534 3.59835C4.56208 4.30161 4.16699 5.25544 4.16699 6.25C4.16699 7.24456 4.56208 8.19839 5.26534 8.90165C5.9686 9.60491 6.92243 10 7.91699 10ZM17.5003 7.5C17.5003 8.16304 17.2369 8.79893 16.7681 9.26777C16.2993 9.73661 15.6634 10 15.0003 10C14.3373 10 13.7014 9.73661 13.2326 9.26777C12.7637 8.79893 12.5003 8.16304 12.5003 7.5C12.5003 6.83696 12.7637 6.20107 13.2326 5.73223C13.7014 5.26339 14.3373 5 15.0003 5C15.6634 5 16.2993 5.26339 16.7681 5.73223C17.2369 6.20107 17.5003 6.83696 17.5003 7.5ZM7.91699 10.8333C9.57783 10.8333 11.0878 11.34 12.1978 12.055C12.7537 12.4133 13.2295 12.8358 13.5753 13.2967C13.9145 13.7508 14.167 14.2967 14.167 14.8808C14.167 15.51 13.8753 16.0142 13.447 16.3783C13.0428 16.72 12.5162 16.9417 11.972 17.0942C10.8778 17.4 9.43033 17.5 7.91699 17.5C6.40366 17.5 4.95616 17.4 3.86283 17.0942C3.31783 16.9417 2.79116 16.72 2.38783 16.3783C1.95783 16.015 1.66699 15.51 1.66699 14.8808C1.66699 14.2958 1.91949 13.7508 2.25866 13.2975C2.60449 12.8358 3.08033 12.4125 3.63616 12.0558C4.74616 11.3392 6.25616 10.8333 7.91699 10.8333ZM15.0003 10.8333C16.1003 10.8333 17.0987 11.1967 17.8337 11.7092C18.5187 12.1867 19.167 12.94 19.167 13.8092C19.167 14.2983 18.9562 14.7033 18.6353 14.9975C18.3378 15.2708 17.9612 15.4375 17.5987 15.5475C16.8737 15.7667 15.9403 15.8333 15.0003 15.8333H14.8312C14.9395 15.5433 15.0003 15.225 15.0003 14.8808C15.0003 14.0558 14.6478 13.3392 14.242 12.7975C13.837 12.2567 13.3003 11.7808 12.7012 11.3883C13.4128 11.0239 14.2008 10.8337 15.0003 10.8333Z" fill="white"/>
</g>
<defs>
<clipPath id="clip0_1675_13738">
<rect width="20" height="20" fill="white"/>
</clipPath>
</defs>
</svg>
