<svg width="16" height="16" viewBox="0 0 16 16" fill="none" xmlns="http://www.w3.org/2000/svg">
<g clip-path="url(#clip0_541_2260)">
<path d="M3.29147 11.6452L8.00658 6.93112L12.7217 11.6452C12.8342 11.7577 12.9678 11.8469 13.1148 11.9078C13.2618 11.9687 13.4193 12 13.5784 12C13.7375 12 13.8951 11.9687 14.0421 11.9078C14.1891 11.8469 14.3227 11.7577 14.4352 11.6452C14.5477 11.5327 14.6369 11.3992 14.6978 11.2522C14.7587 11.1052 14.79 10.9477 14.79 10.7886C14.79 10.6296 14.7587 10.4721 14.6978 10.3251C14.6369 10.1781 14.5477 10.0446 14.4352 9.93209L8.85724 4.35538C8.3833 3.88154 7.6177 3.88154 7.14376 4.35538L1.56584 9.93209C1.45318 10.0445 1.3638 10.178 1.30282 10.325C1.24184 10.472 1.21045 10.6295 1.21045 10.7886C1.21045 10.9478 1.24184 11.1053 1.30282 11.2523C1.3638 11.3993 1.45318 11.5328 1.56584 11.6452C2.03978 12.1069 2.81753 12.119 3.29147 11.6452Z" fill="#5F5F5F"/>
</g>
<defs>
<clipPath id="clip0_541_2260">
<rect width="16" height="16" fill="white"/>
</clipPath>
</defs>
</svg>
