<svg width="20" height="20" viewBox="0 0 20 20" fill="none" xmlns="http://www.w3.org/2000/svg">
<g clip-path="url(#clip0_5187_25723)">
<path fill-rule="evenodd" clip-rule="evenodd" d="M11.6537 2.11829C11.7262 2.25913 11.7445 2.43996 11.7803 2.80163C11.8487 3.48496 11.8828 3.82663 12.0262 4.01496C12.1155 4.13189 12.2341 4.2231 12.3701 4.27931C12.5061 4.33551 12.6545 4.35471 12.8003 4.33496C13.0337 4.30413 13.3003 4.08663 13.832 3.65163C14.1128 3.42079 14.2537 3.30579 14.4045 3.25746C14.5966 3.19607 14.8044 3.20644 14.9895 3.28663C15.1353 3.34996 15.2645 3.47829 15.5203 3.73496L16.2653 4.47996C16.522 4.73663 16.6503 4.86496 16.7137 5.01079C16.7938 5.19584 16.8042 5.40369 16.7428 5.59579C16.6945 5.74663 16.5795 5.88746 16.3495 6.16829C15.9137 6.70079 15.6962 6.96663 15.6645 7.20079C15.645 7.34654 15.6644 7.49485 15.7207 7.63068C15.7771 7.7665 15.8684 7.88499 15.9853 7.97413C16.1728 8.11746 16.5153 8.15163 17.1995 8.21996C17.5603 8.25579 17.7412 8.27413 17.8828 8.34663C18.0615 8.43929 18.2007 8.59351 18.2745 8.78079C18.3337 8.92829 18.3337 9.10996 18.3337 9.47329V10.5266C18.3337 10.89 18.3337 11.0716 18.2753 11.2183C18.2013 11.4062 18.0615 11.5607 17.882 11.6533C17.7412 11.7258 17.5603 11.7441 17.1987 11.78C16.5153 11.8483 16.1737 11.8825 15.9853 12.0258C15.8684 12.1151 15.7772 12.2338 15.721 12.3697C15.6648 12.5057 15.6456 12.6542 15.6653 12.8C15.697 13.0333 15.9145 13.3 16.3495 13.8316C16.5795 14.1125 16.6945 14.2525 16.7428 14.4041C16.8042 14.5962 16.7938 14.8041 16.7137 14.9891C16.6503 15.135 16.522 15.2633 16.2653 15.52L15.5203 16.2641C15.2637 16.5216 15.1353 16.65 14.9895 16.7125C14.8044 16.7926 14.5966 16.803 14.4045 16.7416C14.2537 16.6933 14.1128 16.5783 13.832 16.3483C13.2995 15.9133 13.0337 15.6958 12.8003 15.665C12.6545 15.6452 12.5061 15.6644 12.3701 15.7206C12.2341 15.7768 12.1155 15.868 12.0262 15.985C11.8828 16.1725 11.8487 16.5141 11.7803 17.1983C11.7445 17.56 11.7262 17.7408 11.6537 17.8816C11.5613 18.061 11.4071 18.2007 11.2195 18.275C11.072 18.3333 10.8903 18.3333 10.527 18.3333H9.47366C9.11033 18.3333 8.92866 18.3333 8.78199 18.275C8.59412 18.2009 8.43954 18.0611 8.34699 17.8816C8.27449 17.7408 8.25616 17.56 8.22033 17.1983C8.15199 16.515 8.11783 16.1733 7.97449 15.985C7.88526 15.8682 7.76673 15.777 7.63091 15.7208C7.4951 15.6646 7.34683 15.6454 7.20116 15.665C6.96699 15.6958 6.70116 15.9133 6.16866 16.3483C5.88783 16.5791 5.74699 16.6941 5.59616 16.7425C5.40405 16.8038 5.19621 16.7935 5.01116 16.7133C4.86533 16.65 4.73616 16.5216 4.48033 16.265L3.73533 15.52C3.47866 15.2633 3.35033 15.135 3.28699 14.9891C3.2068 14.8041 3.19644 14.5962 3.25783 14.4041C3.30616 14.2533 3.42116 14.1125 3.65116 13.8316C4.08699 13.2991 4.30449 13.0333 4.33533 12.7991C4.35493 12.6535 4.33565 12.5052 4.27945 12.3694C4.22325 12.2336 4.13213 12.115 4.01533 12.0258C3.82783 11.8825 3.48533 11.8483 2.80116 11.78C2.44033 11.7441 2.25949 11.7258 2.11783 11.6533C1.93912 11.5606 1.79999 11.4064 1.72616 11.2191C1.66699 11.0716 1.66699 10.89 1.66699 10.5266V9.47329C1.66699 9.10996 1.66699 8.92829 1.72533 8.78163C1.7994 8.59376 1.93917 8.43918 2.11866 8.34663C2.25949 8.27413 2.44033 8.25579 2.80199 8.21996C3.48533 8.15163 3.82783 8.11746 4.01533 7.97413C4.13228 7.88499 4.22356 7.7665 4.27991 7.63068C4.33626 7.49485 4.35567 7.34654 4.33616 7.20079C4.30449 6.96663 4.08616 6.70079 3.65116 6.16746C3.42116 5.88663 3.30616 5.74663 3.25783 5.59496C3.19644 5.40285 3.2068 5.19501 3.28699 5.00996C3.35033 4.86496 3.47866 4.73579 3.73533 4.47913L4.48033 3.73496C4.73699 3.47829 4.86533 3.34913 5.01116 3.28663C5.19621 3.20644 5.40405 3.19607 5.59616 3.25746C5.74699 3.30579 5.88783 3.42079 6.16866 3.65079C6.70116 4.08579 6.96699 4.30329 7.20033 4.33496C7.34634 4.35477 7.49499 4.33552 7.63113 4.27916C7.76728 4.2228 7.88604 4.13135 7.97533 4.01413C8.11699 3.82663 8.15199 3.48496 8.22033 2.80079C8.25616 2.43996 8.27449 2.25913 8.34699 2.11746C8.4395 1.93844 8.59374 1.799 8.78116 1.72496C8.92866 1.66663 9.11033 1.66663 9.47366 1.66663H10.527C10.8903 1.66663 11.072 1.66663 11.2187 1.72496C11.4065 1.79903 11.5611 1.93881 11.6537 2.11829ZM10.0003 13.3333C10.8844 13.3333 11.7322 12.9821 12.3573 12.357C12.9825 11.7319 13.3337 10.884 13.3337 9.99996C13.3337 9.1159 12.9825 8.26806 12.3573 7.64294C11.7322 7.01782 10.8844 6.66663 10.0003 6.66663C9.11627 6.66663 8.26842 7.01782 7.6433 7.64294C7.01818 8.26806 6.66699 9.1159 6.66699 9.99996C6.66699 10.884 7.01818 11.7319 7.6433 12.357C8.26842 12.9821 9.11627 13.3333 10.0003 13.3333Z" fill="white"/>
</g>
<defs>
<clipPath id="clip0_5187_25723">
<rect width="20" height="20" fill="white"/>
</clipPath>
</defs>
</svg>
