<svg width="20" height="20" viewBox="0 0 20 20" fill="none" xmlns="http://www.w3.org/2000/svg">
<g clip-path="url(#clip0_4680_24126)">
<path d="M14.9995 11C13.434 11 12.0747 11.8999 11.4185 13.2123L4.15351 5.94732L4.17226 5.92857L6.05023 4.05061C8.78437 1.31646 13.2152 1.31646 15.9494 4.05061C18.0461 6.14731 18.5336 9.24704 17.4118 11.8093C16.7431 11.3 15.9056 11 14.9995 11ZM3.54107 6.74725L11.0654 14.2716C11.0217 14.506 10.9998 14.7497 10.9998 14.9997C10.9998 15.7246 11.1935 16.4027 11.5279 16.9901C11.4341 16.9964 11.3373 16.9995 11.2404 16.9995H11.156C10.0968 16.9995 9.0781 16.5777 8.32816 15.8277L8.02194 15.5215C7.6126 15.1122 6.94078 15.134 6.55956 15.5746L4.75659 17.6557C4.57535 17.8651 4.31288 17.9901 4.0379 17.9994C3.76292 18.0088 3.49107 17.9026 3.29421 17.7057L2.2943 16.7058C2.09744 16.5089 1.9912 16.2402 2.00057 15.9652C2.00995 15.6902 2.13494 15.4278 2.34429 15.2465L4.42537 13.4436C4.86283 13.0623 4.88783 12.3905 4.47849 11.9812L4.17226 11.675C3.42233 10.9219 3.00049 9.90324 3.00049 8.84395V8.75959C3.00049 8.04715 3.1911 7.35658 3.54107 6.75038V6.74725ZM14.9995 11.9999C15.7951 11.9999 16.5581 12.316 17.1206 12.8785C17.6832 13.4411 17.9992 14.2041 17.9992 14.9997C17.9992 15.7953 17.6832 16.5583 17.1206 17.1208C16.5581 17.6834 15.7951 17.9994 14.9995 17.9994C14.2039 17.9994 13.4409 17.6834 12.8783 17.1208C12.3158 16.5583 11.9997 15.7953 11.9997 14.9997C11.9997 14.2041 12.3158 13.4411 12.8783 12.8785C13.4409 12.316 14.2039 11.9999 14.9995 11.9999Z" fill="white"/>
</g>
<defs>
<clipPath id="clip0_4680_24126">
<rect width="20" height="20" fill="white"/>
</clipPath>
</defs>
</svg>
