<?xml version="1.0" standalone="no"?>
<!DOCTYPE svg PUBLIC "-//W3C//DTD SVG 20010904//EN"
 "http://www.w3.org/TR/2001/REC-SVG-20010904/DTD/svg10.dtd">
<svg version="1.0" xmlns="http://www.w3.org/2000/svg"
 width="5068.000000pt" height="1393.000000pt" viewBox="0 0 5068.000000 1393.000000"
 preserveAspectRatio="xMidYMid meet">

<g transform="translate(0.000000,1393.000000) scale(0.100000,-0.100000)"
fill="#000000" stroke="none">
<path d="M28370 9084 c-104 -45 -659 -188 -1090 -279 -350 -74 -594 -190 -779
-369 -253 -245 -383 -553 -423 -1006 -8 -88 -13 -301 -13 -545 0 -376 1 -408
23 -529 57 -315 150 -516 311 -677 195 -194 440 -283 853 -310 282 -19 623 10
847 71 271 74 487 264 594 520 104 249 139 711 76 1005 -114 530 -459 784
-1034 762 -162 -6 -266 -31 -403 -99 -137 -67 -263 -200 -326 -345 -17 -39
-22 -43 -54 -43 l-35 0 7 88 c9 109 31 237 52 299 45 135 125 253 225 330 142
111 237 146 589 222 157 34 353 79 435 101 159 41 364 106 379 120 9 9 -181
700 -193 700 -3 -1 -22 -8 -41 -16z m-737 -1899 c161 -42 255 -142 298 -315
22 -87 19 -436 -4 -520 -67 -246 -205 -343 -487 -343 -389 1 -542 191 -527
658 8 284 64 393 246 485 95 47 166 61 301 55 63 -2 141 -11 173 -20z"/>
<path d="M19990 8796 l0 -153 -292 -6 c-181 -3 -340 -11 -417 -21 -723 -95
-1091 -407 -1201 -1019 -62 -344 -40 -772 54 -1060 128 -392 387 -644 796
-776 231 -74 368 -92 743 -98 l317 -5 0 -169 0 -169 455 0 455 0 0 169 0 169
318 5 c375 6 503 23 738 98 619 198 901 674 881 1484 -6 226 -25 365 -72 530
-33 115 -119 291 -183 375 -157 207 -393 344 -727 423 -193 46 -319 58 -647
64 l-308 5 0 154 0 154 -455 0 -455 0 0 -154z m0 -1646 l0 -760 -169 0 c-188
0 -298 15 -413 56 -202 72 -321 203 -380 419 -19 70 -22 106 -22 290 0 181 3
223 21 302 29 121 63 191 129 262 124 134 312 188 667 190 l167 1 0 -760z
m1440 731 c243 -53 374 -176 433 -409 19 -76 22 -114 22 -302 0 -251 -12 -322
-77 -451 -114 -229 -340 -329 -739 -329 l-169 0 0 761 0 761 218 -5 c167 -4
239 -10 312 -26z"/>
<path d="M24185 8009 c-158 -15 -318 -47 -419 -83 -352 -126 -523 -365 -571
-798 l-6 -58 420 0 421 0 0 23 c0 79 80 195 157 228 117 50 314 63 446 30 98
-25 148 -52 186 -98 48 -59 61 -110 61 -250 l0 -124 -32 5 c-186 29 -879 41
-1022 17 -392 -65 -598 -224 -677 -526 -17 -63 -21 -110 -22 -220 0 -209 39
-350 135 -486 85 -122 247 -227 413 -269 108 -28 308 -42 425 -29 331 34 586
210 685 472 22 59 25 62 59 65 l36 3 0 -240 0 -241 420 0 421 0 -3 933 c-3
931 -3 932 -26 1011 -30 108 -91 229 -149 298 -127 151 -357 266 -631 312
-201 35 -510 45 -727 25z m654 -1536 l43 -6 -4 -102 c-3 -90 -7 -108 -36 -168
-54 -109 -155 -179 -310 -213 -103 -23 -284 -16 -367 15 -146 54 -202 201
-133 348 29 63 115 110 248 137 33 6 502 -3 559 -11z"/>
<path d="M30697 8010 c-84 -15 -189 -50 -271 -93 -151 -78 -275 -225 -337
-399 -31 -87 -32 -88 -65 -88 l-34 0 0 255 0 255 -430 0 -430 0 0 -1705 0
-1705 430 0 430 0 0 710 0 710 34 0 c31 0 34 -3 46 -47 45 -165 161 -327 295
-411 139 -86 264 -122 455 -129 393 -15 675 90 831 310 157 220 221 510 222
997 0 262 -10 389 -50 594 -76 398 -275 638 -593 715 -156 38 -405 52 -533 31z
m-45 -655 c248 -37 336 -162 368 -521 20 -214 -8 -490 -59 -601 -73 -156 -199
-215 -466 -216 -117 -1 -138 2 -210 27 -151 52 -236 130 -276 254 -19 60 -22
96 -27 328 -8 467 27 581 208 672 141 71 269 86 462 57z"/>
<path d="M39015 8013 c-116 -7 -316 -36 -405 -59 -57 -14 -140 -46 -208 -80
-178 -88 -309 -225 -378 -395 -37 -90 -71 -230 -79 -327 l-8 -82 432 0 431 0
0 23 c0 48 33 119 79 168 67 73 152 100 326 107 210 7 349 -37 412 -131 40
-60 49 -107 45 -241 l-4 -109 -96 6 c-54 3 -185 11 -292 18 -237 14 -602 6
-718 -15 -314 -58 -513 -184 -604 -384 -89 -196 -95 -492 -12 -697 80 -197
269 -355 499 -415 105 -27 323 -42 440 -30 155 16 313 69 421 140 119 77 229
217 279 353 17 45 19 47 56 47 l39 0 0 -235 0 -235 425 0 426 0 -3 923 c-3
918 -3 922 -26 1002 -31 112 -101 249 -162 318 -202 225 -590 341 -1120 335
-80 -1 -167 -3 -195 -5z m629 -1540 l28 -6 -4 -101 c-4 -113 -28 -181 -86
-247 -69 -78 -229 -138 -394 -146 -270 -14 -418 75 -417 252 0 104 28 156 108
203 94 55 158 63 461 57 151 -3 288 -8 304 -12z"/>
<path d="M32260 6665 l0 -1255 308 0 308 0 515 656 514 655 3 -655 2 -656 400
0 400 0 0 1255 0 1255 -323 0 -323 0 -495 -653 -494 -654 -3 654 -2 653 -405
0 -405 0 0 -1255z"/>
<path d="M35090 6665 l0 -1255 425 0 425 0 0 520 0 521 136 -3 137 -3 302
-515 302 -515 486 -3 c268 -1 487 0 487 3 0 4 -855 1330 -870 1350 -5 6 162
251 391 574 219 311 399 569 399 573 0 4 -210 8 -468 8 l-467 0 -415 -619
-415 -618 -3 618 -2 619 -425 0 -425 0 0 -1255z"/>
<path d="M40900 6665 l0 -1255 425 0 425 0 0 480 0 480 430 0 430 0 0 -480 0
-480 420 0 420 0 0 1255 0 1255 -420 0 -420 0 0 -450 0 -450 -430 0 -430 0 0
450 0 450 -425 0 -425 0 0 -1255z"/>
<path d="M43690 7595 l0 -325 400 0 400 0 0 -930 0 -930 425 0 425 0 0 930 0
930 400 0 400 0 0 325 0 325 -1225 0 -1225 0 0 -325z"/>
</g>
</svg>
