<svg width="100%" height="32" xmlns="http://www.w3.org/2000/svg" viewBox="0 0 192 32">
	<path d="M49.82 10.62a5.86 5.86 0 00-3.89-1.31h-5.57v15.06h3.51v-5.09h3a4.38 4.38 0 00.95-.1H48a4.62 4.62 0 002.57-2 4.78 4.78 0 00.84-2.8 4.56 4.56 0 00-1.59-3.76zm-2 3.68a1.55 1.55 0 01-.51 1.28 2.58 2.58 0 01-1.63.47h-1.82v-3.52h1.86a2.42 2.42 0 011.62.48 1.57 1.57 0 01.53 1.29zm127.58-3.68a5.89 5.89 0 00-3.9-1.31h-5.57v15.06h3.51v-5.09h3a4.38 4.38 0 001-.1h.19a4.63 4.63 0 002.56-2 4.78 4.78 0 00.84-2.8 4.58 4.58 0 00-1.63-3.76zm-2 3.68a1.53 1.53 0 01-.52 1.28 2.53 2.53 0 01-1.62.47h-1.86v-3.52h1.86a2.38 2.38 0 011.61.48 1.54 1.54 0 01.53 1.29zM69.24 11a7.82 7.82 0 00-10.95 0 8.19 8.19 0 000 11.13 7.91 7.91 0 0011 0 8.21 8.21 0 000-11.13zm-2.54 8.81a4.14 4.14 0 01-5.86 0 5.08 5.08 0 010-6.43 4.11 4.11 0 015.83-.05v.05a5.05 5.05 0 010 6.43zM158.94 11A7.82 7.82 0 00148 11a8.19 8.19 0 000 11.13 7.9 7.9 0 0011 0A8.19 8.19 0 00159 11zm-2.54 8.77a4.13 4.13 0 01-5.85 0 5.08 5.08 0 010-6.43 4.11 4.11 0 015.83-.05l.05.05a5 5 0 010 6.43zm34.52-10.46h-9.25v15.06h3.53V12.56h4.65l.17-.26 1.39-2.09.59-.9zm-48.81 0h-12.37v3.25h4.71v11.81H138V12.56h4.71V9.31zM87 20.44l-.33-.16-.29.23a3.71 3.71 0 01-2.41.74 4.23 4.23 0 01-3.2-1.25 4.54 4.54 0 01-1.23-3.32 4.39 4.39 0 011.23-3.26 4.23 4.23 0 013.17-1.24 3.69 3.69 0 011.5.34 4 4 0 011.35 1l.35.42.43-.33 1.61-1.21.49-.37-.39-.46A6.78 6.78 0 0083.91 9a8.45 8.45 0 00-3.06.55 7.22 7.22 0 00-2.51 1.6 7 7 0 00-1.68 2.49 7.89 7.89 0 00-.57 3 8.31 8.31 0 00.55 3 7.58 7.58 0 001.6 2.5 7 7 0 002.5 1.61 9 9 0 003.16.53 6.7 6.7 0 004.83-1.74 4.19 4.19 0 00.35-.37l.49-.57-.68-.33zm20.34-6.79a7.35 7.35 0 00-4.2-4.08 8.57 8.57 0 00-3-.55 6.77 6.77 0 00-5.37 2.58l-.39.47.49.36 1.6 1.21.44.33.35-.41a4 4 0 011.34-1 3.56 3.56 0 011.5-.33 4.19 4.19 0 013.18 1.23l.32.36a.27.27 0 00.09.12 4.28 4.28 0 01.73 1.76h-5.87l.61.9 1.07 1.59.17.25h3.8a4.06 4.06 0 01-1 1.6 4.2 4.2 0 01-3.2 1.25 3.65 3.65 0 01-2.4-.74l-.29-.23-.33.16-1.91.93-.68.33.49.57c.12.14.24.25.35.37a6.7 6.7 0 004.83 1.74 8.93 8.93 0 003.16-.53 6.86 6.86 0 002.49-1.61 7.45 7.45 0 001.61-2.5 8.31 8.31 0 00.55-3 8.16 8.16 0 00-.53-3.13zm18.96 9.93l-5.72-13.89-.14-.36h-3.27l-.14.36-5.68 13.89-.33.8h4l.14-.37 3.69-9.13 3.66 9.12.15.37h4z" fill="#FFFFFF"></path>
	<path d="M14.41 17.59H0a15.41 15.41 0 00.61 3.08h8.54l-5.56 5.56a15 15 0 002.18 2.18l5.56-5.56v8.54a15.41 15.41 0 003.08.61zm17.5 0H17.5V32a15.41 15.41 0 003.08-.61V20.67H28a13 13 0 01-2.66 4.22V29a16.07 16.07 0 005.92-8.32v-.06c.06-.19.11-.39.16-.59a1.24 1.24 0 000-.16c.06-.22.1-.43.15-.64v-.18c0-.18.07-.36.1-.55a1 1 0 010-.16c0-.17.05-.34.07-.51a1.64 1.64 0 01.17-.24zM16 0A16 16 0 000 14.59h10.9l1.72-3.07H3.83a13 13 0 011-2.13h9l1.72-3.08H7.41a12.91 12.91 0 0117.09 0h-8.12l1.72 3.08h9a13.06 13.06 0 011 2.13h-8.8l1.7 3.07h10.9A16 16 0 0016 0z" fill="#FFFFFF"></path>
</svg>