<?xml version="1.0" encoding="utf-8"?>
<!-- Generator: Adobe Illustrator 28.0.0, SVG Export Plug-In . SVG Version: 6.00 Build 0)  -->
<svg version="1.1" id="Слой_1" xmlns="http://www.w3.org/2000/svg" xmlns:xlink="http://www.w3.org/1999/xlink" x="0px" y="0px"
	 viewBox="0 0 866.84 321.71" style="enable-background:new 0 0 866.84 321.71;" xml:space="preserve">
<style type="text/css">
	.st0{fill:#F3F3F3;}
	.st1{fill:#E0112B;}
</style>
<g>
	<g>
		<g>
			<g>
				<g>
					<path class="st0" d="M324.41,272.98c0,12.27-9.95,22.21-22.21,22.21H77.95c-12.26,0-22.21-9.95-22.21-22.21V48.73
						c0-12.27,9.95-22.22,22.21-22.22h224.24c12.27,0,22.21,9.95,22.21,22.22V272.98z"/>
				</g>
				<g>
					<g>
						<g>
							<g>
								<path class="st1" d="M114.17,132.46h26.83c18.08,0,23.17,12.55,23.17,21.27c0,8.83-5.17,21.37-23.17,21.37h-9v21h-17.82
									V132.46z M131.99,161.1h5.09c7.9,0,8.72-4.64,8.72-7.37c0-3.17-1.08-7.27-8.72-7.27h-5.09V161.1z"/>
							</g>
							<g>
								<path class="st1" d="M181.33,147.74h-13.99v-15.28h45.81v15.28h-14v48.36h-17.82V147.74z"/>
							</g>
							<g>
								<path class="st1" d="M266.4,193.19c-5.73,3.91-11.73,4.73-17.18,4.73c-18.91,0-32.55-13.28-32.55-33.63
									c0-21.27,15-33.64,32.28-33.64c5.64,0,12.09,1.46,17.45,5.1v18.45c-3.27-3.82-8.28-7.64-15.09-7.64
									c-9.82,0-16.27,7.81-16.27,18.28c0,9.63,6.09,17.18,16.27,17.18c6.63,0,11.82-3.55,15.09-6.91V193.19z"/>
							</g>
						</g>
					</g>
					<g>
						<g>
							<path class="st1" d="M152.7,98.73h-6.62v-2.06h15.81v2.06h-6.61v16.59h-2.58V98.73z"/>
						</g>
						<g>
							<path class="st1" d="M182.53,110.41c-1.55,3.09-4.16,5.68-8.6,5.68c-6.23,0-9.59-5.07-9.59-10.1
								c0-5.28,3.36-10.09,9.59-10.09c6.4,0,8.6,5.5,8.6,9.06v1.25h-15.42c-0.1,3.65,2.23,7.81,6.82,7.81c1.5,0,4.55-0.25,6.61-4.6
								L182.53,110.41z M179.95,104.14c-0.08-3.01-2.2-6.19-5.97-6.19c-3.54,0-6.14,2.53-6.66,6.19H179.95z"/>
						</g>
						<g>
							<path class="st1" d="M187.69,96.66h2.58v8.08h10.49v-8.08h2.57v18.65h-2.57v-8.51h-10.49v8.51h-2.58V96.66z"/>
						</g>
						<g>
							<path class="st1" d="M223.44,96.66v16.58h2.71v6.87h-2.41v-4.81h-14.21v4.81h-2.41v-6.87c3.98-0.26,4.25-4.21,4.25-7.48v-9.1
								H223.44z M220.86,98.73h-6.9v8.81c0,2.44-0.61,4.37-2.28,5.71h9.19V98.73z"/>
						</g>
						<g>
							<path class="st1" d="M247.2,110.41c-1.54,3.09-4.17,5.68-8.59,5.68c-6.23,0-9.58-5.07-9.58-10.1
								c0-5.28,3.36-10.09,9.58-10.09c6.4,0,8.59,5.5,8.59,9.06v1.25h-15.42c-0.09,3.65,2.24,7.81,6.83,7.81
								c1.51,0,4.56-0.25,6.62-4.6L247.2,110.41z M244.63,104.14c-0.08-3.01-2.19-6.19-5.97-6.19c-3.53,0-6.15,2.53-6.66,6.19
								H244.63z"/>
						</g>
						<g>
							<path class="st1" d="M254.78,96.66v3.31c1.15-2.15,3.27-4.07,6.96-4.07c5.71,0,9.62,4.07,9.62,10.09
								c0,5.67-3.65,10.1-9.54,10.1c-3.91,0-5.93-2.28-6.87-3.66v11.89h-2.59V96.66H254.78z M268.62,105.99
								c0-3.74-1.98-8.03-7.14-8.03c-4.04,0-6.7,3.65-6.7,8.03c0,5.23,3.44,8.03,7.05,8.03
								C266.12,114.02,268.62,110.5,268.62,105.99z"/>
						</g>
					</g>
				</g>
			</g>
		</g>
	</g>
	<g>
		<path class="st1" d="M375.23,102.2l4.38-2.41c2.35,3.52,6.6,5.98,11.29,5.98c8.45,0,14.99-6.11,15.73-14.93h-22.58v-4.57h22.46
			c-1.17-8.27-7.47-13.94-15.61-13.94c-4.69,0-8.95,2.53-11.29,5.99l-4.32-2.41c3.27-4.63,8.33-8.14,15.61-8.14
			c11.85,0,21.16,8.64,21.16,21.29c0,12.65-9.31,21.29-21.16,21.29C383.62,110.34,378.68,106.89,375.23,102.2z"/>
		<path class="st1" d="M417.18,105.78c4.94,0,7.71-2.71,9.44-16.66l2.53-20.67h25.18v41.15h-5.12V73.01h-15.48l-2.04,16.47
			c-2.22,18.08-7.15,20.86-14.5,20.86V105.78z"/>
		<path class="st1" d="M463.95,109.6V68.45h26.97v4.57h-21.85v13.26h21.41v4.57h-21.41v14.19h21.85v4.57H463.95z"/>
		<path class="st1" d="M523.92,109.6l-15.61-18.51l-4.14,4.69v13.82h-5.12V68.45h5.12v21.29l18.2-21.29h6.42l-17.15,19.56
			l18.64,21.6H523.92z"/>
		<path class="st1" d="M546.31,109.6V73.01h-13.02v-4.57h31.22v4.57h-13.08v36.59H546.31z"/>
		<path class="st1" d="M571.29,109.6V68.45h16.53c8.27,0,12.9,5.68,12.9,12.4c0,6.72-4.75,12.4-12.9,12.4h-11.41v16.35H571.29z
			 M595.42,80.85c0-4.63-3.33-7.84-8.21-7.84h-10.8v15.67h10.8C592.09,88.69,595.42,85.48,595.42,80.85z"/>
		<path class="st1" d="M605.84,89.06c0-12.16,8.21-21.29,20.42-21.29c12.16,0,20.43,9.13,20.43,21.29
			c0,12.15-8.27,21.29-20.43,21.29C614.05,110.34,605.84,101.21,605.84,89.06z M641.38,89.06c0-9.63-5.93-16.72-15.12-16.72
			c-9.26,0-15.11,7.1-15.11,16.72c0,9.56,5.86,16.72,15.11,16.72C635.46,105.78,641.38,98.62,641.38,89.06z"/>
		<path class="st1" d="M683.89,109.6V90.72h-24.07v18.88h-5.12V68.45h5.12v17.71h24.07V68.45h5.12v41.15H683.89z"/>
		<path class="st1" d="M727.82,109.6V90.72h-24.07v18.88h-5.12V68.45h5.12v17.71h24.07V68.45h5.12v41.15H727.82z"/>
		<path class="st1" d="M771.93,109.6l-3.64-9.13H747.8l-3.64,9.13h-5.86l16.53-41.15h6.36l16.6,41.15H771.93z M758.05,73.75
			l-8.76,22.15h17.46L758.05,73.75z"/>
		<path class="st1" d="M781.24,109.6l11.11-16.78c-5.61-0.49-10.73-4.57-10.73-11.97c0-7.59,5.37-12.4,12.96-12.4h16.53v41.15h-5.12
			V93.25h-8.27l-10.49,16.35H781.24z M805.99,88.75V73.01h-10.86c-4.81,0-8.21,3.21-8.21,7.84c0,4.63,3.4,7.9,8.21,7.9H805.99z"/>
		<path class="st1" d="M407.5,180.81v-36.59h-24.06v36.59h-5.12v-41.15h34.31v41.15H407.5z"/>
		<path class="st1" d="M419.4,176.98c4.94,0,7.71-2.71,9.44-16.66l2.53-20.67h25.18v41.15h-5.12v-36.59h-15.48l-2.04,16.47
			c-2.22,18.08-7.15,20.86-14.5,20.86V176.98z"/>
		<path class="st1" d="M464.5,160.26c0-12.16,8.21-21.29,20.43-21.29c12.15,0,20.42,9.13,20.42,21.29
			c0,12.15-8.27,21.29-20.42,21.29C472.71,181.55,464.5,172.42,464.5,160.26z M500.04,160.26c0-9.63-5.92-16.72-15.11-16.72
			c-9.26,0-15.12,7.1-15.12,16.72c0,9.56,5.86,16.72,15.12,16.72C494.12,176.98,500.04,169.82,500.04,160.26z"/>
		<path class="st1" d="M563.22,139.65v36.59h3.7v12.15h-5.12v-7.59h-48.13v-41.15h5.12v36.59h17.09v-36.59h5.12v36.59h17.09v-36.59
			H563.22z"/>
		<path class="st1" d="M602.89,180.81l-3.64-9.13h-20.48l-3.64,9.13h-5.86l16.53-41.15h6.36l16.6,41.15H602.89z M589,144.96
			l-8.76,22.15h17.46L589,144.96z"/>
		<path class="st1" d="M611.27,176.67c4.94-0.31,7.71-2.41,9.44-16.35l2.53-20.67h25.18v36.59h3.76v12.15h-5.12v-7.59h-30.67v7.59
			h-5.12V176.67z M619.48,176.24h23.82v-32.02h-15.49l-2.04,16.47C624.72,169.39,622.5,173.96,619.48,176.24z"/>
		<path class="st1" d="M683.58,180.81l-15.61-18.51l-4.14,4.69v13.82h-5.12v-41.15h5.12v21.29l18.2-21.29h6.42l-17.15,19.56
			l18.64,21.6H683.58z"/>
		<path class="st1" d="M725.17,180.81l-3.64-9.13h-20.48l-3.64,9.13h-5.86l16.53-41.15h6.36l16.6,41.15H725.17z M711.28,144.96
			l-8.76,22.15h17.46L711.28,144.96z"/>
		<path class="st1" d="M378.31,252.01v-41.15h16.54c8.27,0,12.89,5.68,12.89,12.4c0,6.72-4.75,12.4-12.89,12.4h-11.41v16.35H378.31z
			 M402.44,223.26c0-4.63-3.33-7.84-8.21-7.84h-10.8v15.67h10.8C399.11,231.1,402.44,227.89,402.44,223.26z"/>
		<path class="st1" d="M412.86,231.47c0-12.16,8.21-21.29,20.42-21.29c12.15,0,20.42,9.13,20.42,21.29
			c0,12.15-8.27,21.29-20.42,21.29C421.07,252.75,412.86,243.62,412.86,231.47z M448.4,231.47c0-9.63-5.93-16.72-15.12-16.72
			c-9.26,0-15.12,7.1-15.12,16.72c0,9.56,5.86,16.72,15.12,16.72C442.48,248.19,448.4,241.03,448.4,231.47z"/>
		<path class="st1" d="M460.06,231.47c0-12.65,9.32-21.29,21.16-21.29c7.28,0,12.34,3.52,15.61,8.14l-4.32,2.41
			c-2.35-3.46-6.6-5.99-11.29-5.99c-9.01,0-15.86,6.91-15.86,16.72c0,9.75,6.85,16.72,15.86,16.72c4.69,0,8.94-2.47,11.29-5.98
			l4.38,2.41c-3.45,4.69-8.39,8.14-15.67,8.14C469.38,252.75,460.06,244.11,460.06,231.47z"/>
		<path class="st1" d="M501.77,231.47c0-12.65,9.32-21.29,21.16-21.29c7.28,0,12.34,3.52,15.61,8.14l-4.32,2.41
			c-2.35-3.46-6.6-5.99-11.29-5.99c-9.01,0-15.86,6.91-15.86,16.72c0,9.75,6.85,16.72,15.86,16.72c4.69,0,8.94-2.47,11.29-5.98
			l4.38,2.41c-3.45,4.69-8.39,8.14-15.67,8.14C511.08,252.75,501.77,244.11,501.77,231.47z"/>
		<path class="st1" d="M545.13,252.01v-41.15h5.12V243l23.69-32.15h5.24v41.15h-5.12v-32.82l-24,32.82H545.13z"/>
		<path class="st1" d="M588.82,252.01v-41.15h5.12V243l23.69-32.15h5.24v41.15h-5.12v-32.82l-24,32.82H588.82z"/>
	</g>
</g>
</svg>
