<svg width="1500" height="301" viewBox="0 0 1500 301" fill="none" xmlns="http://www.w3.org/2000/svg">
<path d="M300.804 79.8923V300.797H0L109.335 179.775H209.603L300.804 79.8923Z" fill="white"/>
<path d="M433.62 105.961H378.642V75.4682H525.251V105.961H470.272V247.608H433.62V105.961Z" fill="white"/>
<path d="M607.613 250.558C597.839 250.558 588.717 249.493 580.246 247.362C571.775 245.23 564.363 241.788 558.01 237.033C551.657 232.279 546.526 226.131 542.616 218.59C538.707 211.048 536.345 201.868 535.53 191.047H573.649C574.952 200.392 578.617 207.524 584.644 212.442C590.672 217.196 598.328 219.573 607.613 219.573C612.174 219.573 616.573 218.836 620.808 217.36C625.043 215.721 628.871 213.18 632.292 209.737C635.876 206.13 638.808 201.458 641.089 195.72C643.532 189.982 645.161 182.932 645.976 174.571H586.844V145.553H645.731C644.102 130.471 639.786 119.733 632.781 113.339C625.939 106.781 617.55 103.502 607.613 103.502C598.817 103.502 591.405 105.797 585.377 110.388C579.35 114.978 575.441 122.192 573.649 132.028H535.53C536.182 121.7 538.463 112.765 542.372 105.224C546.445 97.6824 551.657 91.5345 558.01 86.7802C564.526 81.8619 572.02 78.2552 580.49 75.96C588.961 73.6648 598.002 72.5172 607.613 72.5172C618.527 72.5172 628.627 74.2386 637.912 77.6814C647.36 80.9602 655.505 86.1244 662.347 93.1739C669.352 100.06 674.809 108.912 678.718 119.733C682.628 130.389 684.583 143.094 684.583 157.849V162.767C684.583 178.506 682.547 191.949 678.474 203.097C674.565 214.245 669.107 223.344 662.103 230.394C655.261 237.279 647.116 242.361 637.668 245.64C628.383 248.919 618.364 250.558 607.613 250.558Z" fill="white"/>
<path d="M716.396 75.4682H753.048V145.553H767.709L822.443 75.4682H863.005L795.809 156.866L865.448 247.608H822.443L767.709 172.604H753.048V247.608H716.396V75.4682Z" fill="white"/>
<path d="M877.656 163.505H955.848V193.998H877.656V163.505Z" fill="white"/>
<path d="M1016.33 105.961H961.355V75.4682H1107.96V105.961H1052.99V247.608H1016.33V105.961Z" fill="white"/>
<path d="M1166.5 250.558C1157.71 250.558 1149.32 249.247 1141.33 246.624C1133.52 243.837 1126.67 239.656 1120.81 234.082C1114.95 228.508 1110.3 221.541 1106.88 213.18C1103.46 204.819 1101.75 194.982 1101.75 183.67V178.752C1101.75 168.096 1103.46 158.751 1106.88 150.718C1110.3 142.684 1114.95 135.963 1120.81 130.553C1126.67 125.143 1133.52 121.126 1141.33 118.503C1149.32 115.716 1157.71 114.322 1166.5 114.322C1175.3 114.322 1183.61 115.716 1191.43 118.503C1199.25 121.126 1206.09 125.143 1211.95 130.553C1217.98 135.963 1222.7 142.684 1226.12 150.718C1229.54 158.751 1231.25 168.096 1231.25 178.752V183.67C1231.25 194.818 1229.54 204.573 1226.12 212.934C1222.7 221.295 1217.98 228.262 1211.95 233.836C1206.09 239.41 1199.25 243.591 1191.43 246.378C1183.61 249.165 1175.3 250.558 1166.5 250.558ZM1166.5 223.016C1175.62 223.016 1183.2 219.737 1189.23 213.18C1195.42 206.622 1198.51 196.785 1198.51 183.67V178.752C1198.51 166.784 1195.42 157.685 1189.23 151.455C1183.2 145.062 1175.62 141.865 1166.5 141.865C1157.22 141.865 1149.56 145.062 1143.53 151.455C1137.51 157.685 1134.49 166.784 1134.49 178.752V183.67C1134.49 196.949 1137.51 206.868 1143.53 213.426C1149.56 219.819 1157.22 223.016 1166.5 223.016Z" fill="white"/>
<path d="M1254.37 117.273H1284.43V136.455C1287.69 130.553 1292.82 125.389 1299.82 120.962C1306.83 116.536 1315.7 114.322 1326.46 114.322C1343.72 114.322 1357.16 119.733 1366.77 130.553C1376.55 141.209 1381.43 157.275 1381.43 178.752V183.67C1381.43 206.13 1376.47 222.934 1366.53 234.082C1356.75 245.066 1343.4 250.558 1326.46 250.558C1317.66 250.558 1309.84 248.673 1303 244.902C1296.32 240.968 1290.86 235.886 1286.63 229.656V296.79H1254.37V117.273ZM1318.88 223.016C1327.35 223.016 1334.44 219.819 1340.14 213.426C1345.84 206.868 1348.69 196.949 1348.69 183.67V178.752C1348.69 166.456 1345.92 157.275 1340.38 151.209C1334.84 144.98 1327.68 141.865 1318.88 141.865C1309.6 141.865 1301.86 144.57 1295.67 149.98C1289.64 155.226 1286.63 163.177 1286.63 173.834V188.588C1286.63 200.228 1289.56 208.917 1295.42 214.655C1301.45 220.229 1309.27 223.016 1318.88 223.016Z" fill="white"/>
<path d="M1407.15 117.273H1500V144.324H1439.4V247.608H1407.15V117.273Z" fill="white"/>
<path d="M0 0H301.523L298.624 3.28637H0V0Z" fill="white"/>
<path d="M0 1.64319H3.28635V222.652L0 226.129V1.64319Z" fill="white"/>
<path d="M90.3867 120.767H190.62L192.264 124.054H90.3867V120.767Z" fill="white"/>
<path d="M3.28613 217.715L90.3744 120.767L91.2495 124.009L3.28613 222.645V217.715Z" fill="white"/>
<path d="M190.608 120.774L294.128 3.28637L301.523 0L192.252 124.06L190.608 120.774Z" fill="white"/>
</svg>
