<svg width="20" height="20" viewBox="0 0 20 20" fill="none" xmlns="http://www.w3.org/2000/svg">
<path d="M10.0721 18.125C10.9887 18.125 11.7387 17.375 11.7387 16.4583H8.4054C8.4054 16.9004 8.58099 17.3243 8.89355 17.6368C9.20611 17.9494 9.63004 18.125 10.0721 18.125ZM15.0721 13.125V8.95833C15.0721 6.4 13.7054 4.25833 11.3221 3.69167V3.125C11.3221 2.43333 10.7637 1.875 10.0721 1.875C9.3804 1.875 8.82206 2.43333 8.82206 3.125V3.69167C6.4304 4.25833 5.07206 6.39167 5.07206 8.95833V13.125L3.99706 14.2C3.47206 14.725 3.83873 15.625 4.5804 15.625H15.5554C16.2971 15.625 16.6721 14.725 16.1471 14.2L15.0721 13.125Z" fill="white"/>
</svg>
