<svg width="20" height="20" viewBox="0 0 20 20" fill="none" xmlns="http://www.w3.org/2000/svg">
<g clip-path="url(#clip0_4675_24139)">
<path d="M16.6747 4.9112C16.6219 4.86926 16.5589 4.84232 16.4921 4.83319C16.4254 4.82406 16.3574 4.83309 16.2953 4.85932L10.2578 7.4737C9.99531 7.58807 9.66656 7.64245 9.32906 7.64245C8.85844 7.64432 8.37156 7.53495 8.03219 7.3862C7.92872 7.34274 7.83023 7.28825 7.73844 7.2237C7.76385 7.2112 7.79406 7.19786 7.82906 7.1837L13.3203 4.8062L14.1391 5.1562V4.13307C14.1401 4.06014 14.1247 3.98792 14.0941 3.92172C14.0635 3.85552 14.0184 3.79704 13.9622 3.75057C13.9099 3.70825 13.847 3.68105 13.7804 3.67191C13.7137 3.66276 13.6458 3.67203 13.5841 3.6987L7.54656 6.31307C7.36031 6.38807 7.20031 6.48057 7.06531 6.61495C6.90916 6.76929 6.82041 6.97914 6.81844 7.1987C6.81844 7.20495 6.82031 7.21557 6.82031 7.21557V16.4218L6.81906 16.4343L6.82094 16.4406V16.4506H6.82219C6.83469 16.7724 6.99719 16.9774 7.15219 17.1224C7.63969 17.5524 8.45844 17.7931 9.32969 17.8056C9.74219 17.8056 10.1609 17.7431 10.5484 17.5768L16.5878 14.9618C16.7472 14.8931 16.8516 14.7224 16.8516 14.5293V5.2937C16.8526 5.22077 16.8372 5.14854 16.8066 5.08235C16.776 5.01615 16.7309 4.95766 16.6747 4.9112ZM12.8453 3.1612C12.8347 3.0237 12.7778 2.89245 12.6766 2.8137C12.6238 2.77176 12.5608 2.74482 12.494 2.73569C12.4272 2.72656 12.3593 2.73559 12.2972 2.76182L6.25969 5.37495C5.99719 5.4887 5.66781 5.5437 5.33094 5.5437C4.86031 5.54495 4.37344 5.43557 4.03406 5.2862C3.93065 5.24313 3.83217 5.18907 3.74031 5.12495C3.76573 5.11245 3.79594 5.09911 3.83094 5.08495L9.32281 2.70745L10.1416 3.05745V2.03557C10.1425 1.96259 10.127 1.89034 10.0963 1.82414C10.0656 1.75793 10.0204 1.69947 9.96406 1.65307C9.91139 1.61125 9.84843 1.58437 9.78179 1.57525C9.71516 1.56612 9.64729 1.57508 9.58531 1.6012L3.54781 4.2162C3.36156 4.2912 3.20219 4.38307 3.06656 4.51807C2.91064 4.67252 2.82212 4.88236 2.82031 5.10182C2.82031 5.10932 2.82219 5.11932 2.82219 5.11932V14.3549H2.82344C2.83594 14.6768 2.99844 14.8818 3.15344 15.0268C3.64094 15.4568 4.45969 15.6968 5.33156 15.7093C5.56833 15.7078 5.80433 15.6822 6.03594 15.6331V7.21495C6.02969 6.77745 6.20469 6.35745 6.51219 6.05494C6.72549 5.84863 6.97854 5.68787 7.25594 5.58245L12.8453 3.1612Z" fill="white"/>
</g>
<defs>
<clipPath id="clip0_4675_24139">
<rect width="20" height="20" fill="white"/>
</clipPath>
</defs>
</svg>
