<svg width="20" height="20" viewBox="0 0 20 20" fill="none" xmlns="http://www.w3.org/2000/svg">
<g clip-path="url(#clip0_1397_13415)">
<path d="M6.45859 3.33331C6.45859 3.16755 6.39275 3.00858 6.27554 2.89137C6.15832 2.77416 5.99935 2.70831 5.83359 2.70831C5.66783 2.70831 5.50886 2.77416 5.39165 2.89137C5.27444 3.00858 5.20859 3.16755 5.20859 3.33331V4.84665C4.60064 4.93286 4.03761 5.21566 3.60545 5.65188C3.1733 6.08809 2.89578 6.65375 2.81526 7.26248L2.74276 7.80665C2.73054 7.89831 2.71887 7.99053 2.70776 8.08331C2.70104 8.14105 2.70665 8.19955 2.72421 8.25495C2.74177 8.31036 2.77089 8.36141 2.80964 8.40473C2.84839 8.44805 2.89589 8.48265 2.94901 8.50625C3.00212 8.52985 3.05964 8.54192 3.11776 8.54165H16.8836C16.9417 8.54192 16.9992 8.52985 17.0523 8.50625C17.1055 8.48265 17.153 8.44805 17.1917 8.40473C17.2305 8.36141 17.2596 8.31036 17.2771 8.25495C17.2947 8.19955 17.3003 8.14105 17.2936 8.08331L17.2586 7.80665L17.1861 7.26248C17.1056 6.65375 16.8281 6.08809 16.3959 5.65188C15.9637 5.21566 15.4007 4.93286 14.7928 4.84665V3.33331C14.7928 3.16755 14.7269 3.00858 14.6097 2.89137C14.4925 2.77416 14.3335 2.70831 14.1678 2.70831C14.002 2.70831 13.843 2.77416 13.7258 2.89137C13.6086 3.00858 13.5428 3.16755 13.5428 3.33331V4.72331C11.1863 4.51385 8.81589 4.51385 6.45943 4.72331L6.45859 3.33331ZM17.4544 10.1883C17.4505 10.0815 17.4052 9.98032 17.3281 9.90629C17.2509 9.83226 17.148 9.79114 17.0411 9.79165H2.95943C2.85251 9.79114 2.74959 9.83226 2.67244 9.90629C2.5953 9.98032 2.54999 10.0815 2.54609 10.1883C2.49682 11.6964 2.58889 13.2057 2.82109 14.6966C2.90668 15.2459 3.1723 15.7512 3.57624 16.1331C3.98018 16.515 4.49955 16.752 5.05276 16.8066L6.04693 16.905C8.67609 17.1633 11.3244 17.1633 13.9536 16.905L14.9478 16.8066C15.501 16.752 16.0203 16.515 16.4243 16.1331C16.8282 15.7512 17.0938 15.2459 17.1794 14.6966C17.4116 13.2057 17.5037 11.6964 17.4544 10.1883Z" fill="white"/>
</g>
<defs>
<clipPath id="clip0_1397_13415">
<rect width="20" height="20" fill="white"/>
</clipPath>
</defs>
</svg>
