<svg width="20" height="20" viewBox="0 0 20 20" fill="none" xmlns="http://www.w3.org/2000/svg">
<g clip-path="url(#clip0_1675_13635)">
<path fill-rule="evenodd" clip-rule="evenodd" d="M1.66699 9.99996C1.66699 5.39746 5.39783 1.66663 10.0003 1.66663C14.6028 1.66663 18.3337 5.39746 18.3337 9.99996C18.3337 14.6025 14.6028 18.3333 10.0003 18.3333C5.39783 18.3333 1.66699 14.6025 1.66699 9.99996ZM10.8337 5.83329C10.8337 5.61228 10.7459 5.40032 10.5896 5.24404C10.4333 5.08776 10.2213 4.99996 10.0003 4.99996C9.77931 4.99996 9.56735 5.08776 9.41107 5.24404C9.25479 5.40032 9.16699 5.61228 9.16699 5.83329V8.96996C9.16701 9.43417 9.29627 9.8892 9.5403 10.2841C9.78433 10.679 10.1335 10.9981 10.5487 11.2058L12.9612 12.4116C13.0594 12.4646 13.1673 12.4973 13.2784 12.5078C13.3895 12.5183 13.5016 12.5063 13.608 12.4727C13.7144 12.439 13.8129 12.3844 13.8978 12.3119C13.9827 12.2394 14.0521 12.1506 14.102 12.0508C14.152 11.951 14.1813 11.8422 14.1884 11.7308C14.1954 11.6194 14.18 11.5078 14.1431 11.4024C14.1062 11.2971 14.0485 11.2003 13.9734 11.1177C13.8984 11.0351 13.8075 10.9684 13.7062 10.9216L11.2945 9.71496C11.1561 9.6458 11.0397 9.53948 10.9583 9.4079C10.8769 9.27632 10.8337 9.12468 10.8337 8.96996V5.83329Z" fill="white"/>
</g>
<defs>
<clipPath id="clip0_1675_13635">
<rect width="20" height="20" fill="white"/>
</clipPath>
</defs>
</svg>
