<svg width="20" height="20" viewBox="0 0 20 20" fill="none" xmlns="http://www.w3.org/2000/svg">
<g clip-path="url(#clip0_666_4141)">
<g clip-path="url(#clip1_666_4141)">
<path fill-rule="evenodd" clip-rule="evenodd" d="M10.0004 11.1783L14.7146 15.8925C14.8718 16.0443 15.0823 16.1283 15.3008 16.1264C15.5193 16.1245 15.7283 16.0368 15.8828 15.8823C16.0373 15.7278 16.1249 15.5188 16.1268 15.3003C16.1287 15.0818 16.0447 14.8713 15.8929 14.7142L11.1788 9.99999L15.8929 5.28583C16.0447 5.12866 16.1287 4.91816 16.1268 4.69966C16.1249 4.48116 16.0373 4.27215 15.8828 4.11764C15.7283 3.96314 15.5193 3.8755 15.3008 3.8736C15.0823 3.8717 14.8718 3.95569 14.7146 4.10749L10.0004 8.82166L5.28626 4.10749C5.12838 3.95945 4.9191 3.87863 4.7027 3.88214C4.4863 3.88566 4.27975 3.97323 4.12676 4.12632C3.97378 4.27941 3.88636 4.48602 3.88299 4.70243C3.87963 4.91883 3.9606 5.12805 4.10876 5.28583L8.82209 9.99999L4.10792 14.7142C4.02833 14.791 3.96485 14.883 3.92117 14.9847C3.8775 15.0863 3.85451 15.1957 3.85355 15.3063C3.85259 15.417 3.87367 15.5267 3.91557 15.6291C3.95747 15.7315 4.01935 15.8246 4.09759 15.9028C4.17584 15.9811 4.26888 16.0429 4.37129 16.0848C4.47371 16.1267 4.58344 16.1478 4.69409 16.1469C4.80474 16.1459 4.91409 16.1229 5.01576 16.0792C5.11743 16.0356 5.20938 15.9721 5.28626 15.8925L10.0004 11.1783Z" fill="white"/>
</g>
</g>
<defs>
<clipPath id="clip0_666_4141">
<rect width="20" height="20" fill="white"/>
</clipPath>
<clipPath id="clip1_666_4141">
<rect width="20" height="20" fill="white"/>
</clipPath>
</defs>
</svg>
