<svg width="32" height="32" viewBox="0 0 32 32" fill="none" xmlns="http://www.w3.org/2000/svg">
<path d="M4.62242 17.4222H13.1558C13.938 17.4222 14.578 16.7822 14.578 16V4.62217C14.578 3.83995 13.938 3.19995 13.1558 3.19995H4.62242C3.8402 3.19995 3.2002 3.83995 3.2002 4.62217V16C3.2002 16.7822 3.8402 17.4222 4.62242 17.4222ZM4.62242 28.8H13.1558C13.938 28.8 14.578 28.16 14.578 27.3777V21.6888C14.578 20.9066 13.938 20.2666 13.1558 20.2666H4.62242C3.8402 20.2666 3.2002 20.9066 3.2002 21.6888V27.3777C3.2002 28.16 3.8402 28.8 4.62242 28.8ZM18.8446 28.8H27.378C28.1602 28.8 28.8002 28.16 28.8002 27.3777V16C28.8002 15.2177 28.1602 14.5777 27.378 14.5777H18.8446C18.0624 14.5777 17.4224 15.2177 17.4224 16V27.3777C17.4224 28.16 18.0624 28.8 18.8446 28.8ZM17.4224 4.62217V10.3111C17.4224 11.0933 18.0624 11.7333 18.8446 11.7333H27.378C28.1602 11.7333 28.8002 11.0933 28.8002 10.3111V4.62217C28.8002 3.83995 28.1602 3.19995 27.378 3.19995H18.8446C18.0624 3.19995 17.4224 3.83995 17.4224 4.62217Z" fill="#40BA21"/>
</svg>
