<svg width="20" height="20" viewBox="0 0 20 20" fill="none" xmlns="http://www.w3.org/2000/svg">
<g clip-path="url(#clip0_906_8809)">
<path d="M8.4375 4.0625V4.375H11.5625V4.0625C11.5625 3.6481 11.3979 3.25067 11.1049 2.95765C10.8118 2.66462 10.4144 2.5 10 2.5C9.5856 2.5 9.18817 2.66462 8.89515 2.95765C8.60212 3.25067 8.4375 3.6481 8.4375 4.0625ZM7.1875 4.375V4.0625C7.1875 3.31658 7.48382 2.60121 8.01126 2.07376C8.53871 1.54632 9.25408 1.25 10 1.25C10.7459 1.25 11.4613 1.54632 11.9887 2.07376C12.5162 2.60121 12.8125 3.31658 12.8125 4.0625V4.375H17.5C17.6658 4.375 17.8247 4.44085 17.9419 4.55806C18.0592 4.67527 18.125 4.83424 18.125 5C18.125 5.16576 18.0592 5.32473 17.9419 5.44194C17.8247 5.55915 17.6658 5.625 17.5 5.625H16.5575L15.375 15.98C15.2878 16.7426 14.923 17.4465 14.3501 17.9573C13.7772 18.4682 13.0363 18.7504 12.2687 18.75H7.73125C6.96366 18.7504 6.22279 18.4682 5.64991 17.9573C5.07702 17.4465 4.7122 16.7426 4.625 15.98L3.4425 5.625H2.5C2.33424 5.625 2.17527 5.55915 2.05806 5.44194C1.94085 5.32473 1.875 5.16576 1.875 5C1.875 4.83424 1.94085 4.67527 2.05806 4.55806C2.17527 4.44085 2.33424 4.375 2.5 4.375H7.1875ZM8.75 8.4375C8.75 8.27174 8.68415 8.11277 8.56694 7.99556C8.44973 7.87835 8.29076 7.8125 8.125 7.8125C7.95924 7.8125 7.80027 7.87835 7.68306 7.99556C7.56585 8.11277 7.5 8.27174 7.5 8.4375V14.6875C7.5 14.8533 7.56585 15.0122 7.68306 15.1294C7.80027 15.2467 7.95924 15.3125 8.125 15.3125C8.29076 15.3125 8.44973 15.2467 8.56694 15.1294C8.68415 15.0122 8.75 14.8533 8.75 14.6875V8.4375ZM11.875 7.8125C11.7092 7.8125 11.5503 7.87835 11.4331 7.99556C11.3158 8.11277 11.25 8.27174 11.25 8.4375V14.6875C11.25 14.8533 11.3158 15.0122 11.4331 15.1294C11.5503 15.2467 11.7092 15.3125 11.875 15.3125C12.0408 15.3125 12.1997 15.2467 12.3169 15.1294C12.4342 15.0122 12.5 14.8533 12.5 14.6875V8.4375C12.5 8.27174 12.4342 8.11277 12.3169 7.99556C12.1997 7.87835 12.0408 7.8125 11.875 7.8125Z" fill="white"/>
</g>
<defs>
<clipPath id="clip0_906_8809">
<rect width="20" height="20" fill="white"/>
</clipPath>
</defs>
</svg>
