<svg width="20" height="20" viewBox="0 0 20 20" fill="none" xmlns="http://www.w3.org/2000/svg">
<g clip-path="url(#clip0_4236_22240)">
<path d="M15.2342 4.76619C15.2923 4.82423 15.3384 4.89316 15.3698 4.96904C15.4013 5.04491 15.4175 5.12624 15.4175 5.20837C15.4175 5.29051 15.4013 5.37184 15.3698 5.44771C15.3384 5.52359 15.2923 5.59252 15.2342 5.65056L6.30059 14.5834H12.917C13.0828 14.5834 13.2417 14.6492 13.3589 14.7664C13.4761 14.8836 13.542 15.0426 13.542 15.2084C13.542 15.3741 13.4761 15.5331 13.3589 15.6503C13.2417 15.7675 13.0828 15.8334 12.917 15.8334H4.79199C4.62623 15.8334 4.46726 15.7675 4.35005 15.6503C4.23284 15.5331 4.16699 15.3741 4.16699 15.2084L4.16699 7.08337C4.16699 6.91761 4.23284 6.75864 4.35005 6.64143C4.46726 6.52422 4.62623 6.45837 4.79199 6.45837C4.95775 6.45837 5.11672 6.52422 5.23393 6.64143C5.35114 6.75864 5.41699 6.91761 5.41699 7.08337V13.6998L14.3498 4.76619C14.4079 4.70808 14.4768 4.66198 14.5527 4.63052C14.6285 4.59907 14.7099 4.58288 14.792 4.58288C14.8741 4.58288 14.9555 4.59907 15.0313 4.63052C15.1072 4.66198 15.1761 4.70808 15.2342 4.76619Z" fill="white"/>
</g>
<defs>
<clipPath id="clip0_4236_22240">
<rect width="20" height="20" fill="white"/>
</clipPath>
</defs>
</svg>
