<svg width="20" height="20" viewBox="0 0 20 20" fill="none" xmlns="http://www.w3.org/2000/svg">
<g clip-path="url(#clip0_1630_13960)">
<path d="M10.0003 18.3334C8.86144 18.3334 7.78505 18.1145 6.77116 17.6767C5.75727 17.2389 4.87172 16.6417 4.11449 15.885C3.35783 15.1284 2.7606 14.2431 2.32283 13.2292C1.88505 12.2153 1.66644 11.1389 1.66699 10C1.66699 8.84724 1.88588 7.76724 2.32366 6.76002C2.76144 5.7528 3.35866 4.87113 4.11533 4.11502C4.87199 3.3578 5.75699 2.76058 6.77033 2.32335C7.78366 1.88613 8.86033 1.66724 10.0003 1.66669C11.1531 1.66669 12.2331 1.88558 13.2403 2.32335C14.2475 2.76113 15.1292 3.35835 15.8853 4.11502C16.6425 4.87169 17.2398 5.75363 17.677 6.76085C18.1142 7.76808 18.3331 8.8478 18.3337 10C18.3337 11.1389 18.1148 12.2153 17.677 13.2292C17.2392 14.2431 16.642 15.1286 15.8853 15.8859C15.1287 16.6425 14.2467 17.2397 13.2395 17.6775C12.2323 18.1153 11.1525 18.3339 10.0003 18.3334ZM10.0003 16.625C10.3614 16.125 10.6739 15.6042 10.9378 15.0625C11.2017 14.5209 11.417 13.9445 11.5837 13.3334H8.41699C8.58366 13.9445 8.79894 14.5209 9.06283 15.0625C9.32671 15.6042 9.63921 16.125 10.0003 16.625ZM7.83366 16.2917C7.58366 15.8334 7.36477 15.3575 7.17699 14.8642C6.98922 14.3709 6.8331 13.8606 6.70866 13.3334H4.25033C4.6531 14.0278 5.15672 14.632 5.76116 15.1459C6.3656 15.6597 7.05644 16.0417 7.83366 16.2917ZM12.167 16.2917C12.9448 16.0417 13.6359 15.6597 14.2403 15.1459C14.8448 14.632 15.3481 14.0278 15.7503 13.3334H13.292C13.167 13.8611 13.0109 14.3717 12.8237 14.865C12.6364 15.3584 12.4175 15.8339 12.167 16.2917ZM3.54199 11.6667H6.37533C6.33366 11.3889 6.30227 11.1145 6.28116 10.8434C6.26005 10.5722 6.24977 10.2911 6.25033 10C6.25033 9.70835 6.26088 9.42724 6.28199 9.15669C6.3031 8.88613 6.33422 8.61169 6.37533 8.33335H3.54199C3.47255 8.61113 3.42033 8.88558 3.38533 9.15669C3.35033 9.4278 3.3331 9.70891 3.33366 10C3.33366 10.2917 3.35116 10.5728 3.38616 10.8434C3.42116 11.1139 3.4731 11.3884 3.54199 11.6667ZM8.04199 11.6667H11.9587C12.0003 11.3889 12.0317 11.1145 12.0528 10.8434C12.0739 10.5722 12.0842 10.2911 12.0837 10C12.0837 9.70835 12.0731 9.42724 12.052 9.15669C12.0309 8.88613 11.9998 8.61169 11.9587 8.33335H8.04199C8.00033 8.61113 7.96894 8.88558 7.94783 9.15669C7.92672 9.4278 7.91644 9.70891 7.91699 10C7.91699 10.2917 7.92755 10.5728 7.94866 10.8434C7.96977 11.1139 8.00088 11.3884 8.04199 11.6667ZM13.6253 11.6667H16.4587C16.5281 11.3889 16.5803 11.1145 16.6153 10.8434C16.6503 10.5722 16.6675 10.2911 16.667 10C16.667 9.70835 16.6495 9.42724 16.6145 9.15669C16.5795 8.88613 16.5275 8.61169 16.4587 8.33335H13.6253C13.667 8.61113 13.6984 8.88558 13.7195 9.15669C13.7406 9.4278 13.7509 9.70891 13.7503 10C13.7503 10.2917 13.7398 10.5728 13.7187 10.8434C13.6975 11.1139 13.6664 11.3884 13.6253 11.6667ZM13.292 6.66669H15.7503C15.3475 5.97224 14.8442 5.36808 14.2403 4.85419C13.6364 4.3403 12.9453 3.95835 12.167 3.70835C12.417 4.16669 12.6359 4.64252 12.8237 5.13585C13.0114 5.62919 13.1675 6.13946 13.292 6.66669ZM8.41699 6.66669H11.5837C11.417 6.05558 11.2017 5.47919 10.9378 4.93752C10.6739 4.39585 10.3614 3.87502 10.0003 3.37502C9.63921 3.87502 9.32671 4.39585 9.06283 4.93752C8.79894 5.47919 8.58366 6.05558 8.41699 6.66669ZM4.25033 6.66669H6.70866C6.83366 6.13891 6.99005 5.62835 7.17783 5.13502C7.3656 4.64169 7.58422 4.16613 7.83366 3.70835C7.05588 3.95835 6.36477 4.3403 5.76033 4.85419C5.15588 5.36808 4.65255 5.97224 4.25033 6.66669Z" fill="white"/>
</g>
<defs>
<clipPath id="clip0_1630_13960">
<rect width="20" height="20" fill="white"/>
</clipPath>
</defs>
</svg>
