<svg width="20" height="20" viewBox="0 0 20 20" fill="none" xmlns="http://www.w3.org/2000/svg">
<g clip-path="url(#clip0_927_9269)">
<g clip-path="url(#clip1_927_9269)">
<path d="M2.98204 12.6482L2.01445 16.8241C1.98107 16.9767 1.98221 17.1349 2.0178 17.2871C2.05338 17.4392 2.1225 17.5815 2.22012 17.7035C2.31773 17.8256 2.44137 17.9242 2.58201 17.9923C2.72264 18.0605 2.87671 18.0963 3.03297 18.0972C3.10575 18.1051 3.17917 18.1051 3.25195 18.0972L7.45334 17.1296L15.52 9.09353L11.0182 4.60187L2.98204 12.6482Z" fill="white"/>
<path d="M18.0566 5.07038L15.0519 2.06575C14.8544 1.86921 14.5871 1.75888 14.3084 1.75888C14.0298 1.75888 13.7624 1.86921 13.5649 2.06575L11.8945 3.73612L16.3913 8.23288L18.0617 6.56251C18.1594 6.46427 18.2368 6.34771 18.2895 6.21951C18.3421 6.09131 18.369 5.95398 18.3685 5.81539C18.3681 5.6768 18.3403 5.53966 18.2867 5.41183C18.2332 5.28399 18.155 5.16796 18.0566 5.07038Z" fill="white"/>
</g>
</g>
<defs>
<clipPath id="clip0_927_9269">
<rect width="20" height="20" fill="white"/>
</clipPath>
<clipPath id="clip1_927_9269">
<rect width="18.3333" height="18.3333" fill="white" transform="translate(0.833008 0.833344)"/>
</clipPath>
</defs>
</svg>
