<svg width="32" height="32" viewBox="0 0 32 32" fill="none" xmlns="http://www.w3.org/2000/svg">
<path d="M26.6797 7.85796C26.5953 7.79087 26.4944 7.74775 26.3876 7.73315C26.2808 7.71854 26.172 7.73299 26.0727 7.77496L16.4127 11.958C15.9927 12.141 15.4667 12.228 14.9267 12.228C14.1737 12.231 13.3947 12.056 12.8517 11.818C12.6861 11.7484 12.5286 11.6613 12.3817 11.558C12.4224 11.538 12.4707 11.5166 12.5267 11.494L21.3127 7.68996L22.6227 8.24996V6.61296C22.6243 6.49628 22.5997 6.38072 22.5507 6.2748C22.5018 6.16888 22.4296 6.07531 22.3397 6.00096C22.256 5.93325 22.1554 5.88973 22.0488 5.8751C21.9421 5.86047 21.8335 5.87529 21.7347 5.91796L12.0747 10.101C11.7767 10.221 11.5207 10.369 11.3047 10.584C11.0548 10.8309 10.9128 11.1667 10.9097 11.518C10.9097 11.528 10.9127 11.545 10.9127 11.545V26.275L10.9107 26.295L10.9137 26.305V26.321H10.9157C10.9357 26.836 11.1957 27.164 11.4437 27.396C12.2237 28.084 13.5337 28.469 14.9277 28.489C15.5877 28.489 16.2577 28.389 16.8777 28.123L26.5407 23.939C26.7957 23.829 26.9627 23.556 26.9627 23.247V8.46996C26.9643 8.35328 26.9397 8.23772 26.8907 8.1318C26.8418 8.02588 26.7696 7.93231 26.6797 7.85796ZM20.5527 5.05796C20.5357 4.83796 20.4447 4.62796 20.2827 4.50196C20.1983 4.43487 20.0974 4.39175 19.9906 4.37715C19.8838 4.36254 19.775 4.37699 19.6757 4.41896L10.0157 8.59996C9.5957 8.78196 9.0687 8.86996 8.5297 8.86996C7.7767 8.87196 6.9977 8.69696 6.4547 8.45796C6.28923 8.38906 6.13166 8.30256 5.9847 8.19996C6.02536 8.17996 6.0737 8.15863 6.1297 8.13596L14.9167 4.33196L16.2267 4.89196V3.25696C16.2282 3.1402 16.2034 3.02459 16.1543 2.91867C16.1051 2.81274 16.0328 2.71921 15.9427 2.64496C15.8584 2.57805 15.7577 2.53505 15.6511 2.52044C15.5444 2.50584 15.4359 2.52018 15.3367 2.56196L5.6767 6.74596C5.3787 6.86596 5.1237 7.01296 4.9067 7.22896C4.65721 7.47607 4.51558 7.81182 4.5127 8.16296C4.5127 8.17496 4.5157 8.19096 4.5157 8.19096V22.968H4.5177C4.5377 23.483 4.7977 23.811 5.0457 24.043C5.8257 24.731 7.1357 25.115 8.5307 25.135C8.90952 25.1325 9.28712 25.0916 9.6577 25.013V11.544C9.6477 10.844 9.9277 10.172 10.4197 9.68796C10.761 9.35785 11.1659 9.10064 11.6097 8.93196L20.5527 5.05796Z" fill="#40BA21"/>
</svg>
