<svg width="20" height="20" viewBox="0 0 20 20" fill="none" xmlns="http://www.w3.org/2000/svg">
<g clip-path="url(#clip0_1624_13923)">
<path d="M13.125 14.6875V10.625H7.46094C7.29518 10.625 7.13621 10.5592 7.019 10.4419C6.90179 10.3247 6.83594 10.1658 6.83594 10C6.83594 9.83424 6.90179 9.67527 7.019 9.55806C7.13621 9.44085 7.29518 9.375 7.46094 9.375H13.125V5.3125C13.1244 4.73253 12.8937 4.17649 12.4836 3.76639C12.0735 3.35629 11.5175 3.12562 10.9375 3.125H3.4375C2.85753 3.12562 2.30149 3.35629 1.89139 3.76639C1.48129 4.17649 1.25062 4.73253 1.25 5.3125V14.6875C1.25062 15.2675 1.48129 15.8235 1.89139 16.2336C2.30149 16.6437 2.85753 16.8744 3.4375 16.875H10.9375C11.5175 16.8744 12.0735 16.6437 12.4836 16.2336C12.8937 15.8235 13.1244 15.2675 13.125 14.6875ZM16.616 10.625L14.5582 12.6832C14.4459 12.8014 14.3843 12.9587 14.3864 13.1217C14.3885 13.2847 14.4541 13.4404 14.5694 13.5556C14.6846 13.6709 14.8403 13.7365 15.0033 13.7386C15.1663 13.7407 15.3236 13.6791 15.4418 13.5668L18.5668 10.4418C18.6839 10.3246 18.7497 10.1657 18.7497 10C18.7497 9.83431 18.6839 9.6754 18.5668 9.5582L15.4418 6.4332C15.3236 6.32094 15.1663 6.25928 15.0033 6.26137C14.8403 6.26345 14.6846 6.32912 14.5694 6.44437C14.4541 6.55962 14.3885 6.71534 14.3864 6.87831C14.3843 7.04129 14.4459 7.19863 14.5582 7.3168L16.616 9.375H13.125V10.625H16.616Z" fill="white"/>
</g>
<defs>
<clipPath id="clip0_1624_13923">
<rect width="20" height="20" fill="white"/>
</clipPath>
</defs>
</svg>
