<svg width="16" height="16" viewBox="0 0 16 16" fill="none" xmlns="http://www.w3.org/2000/svg">
<g clip-path="url(#clip0_627_3335)">
<path d="M11.0422 11.924L7.11382 7.99471L11.0422 4.06546C11.136 3.9717 11.2103 3.86039 11.261 3.73789C11.3118 3.61539 11.3379 3.4841 11.3379 3.35151C11.3379 3.21891 11.3118 3.08762 11.261 2.96512C11.2103 2.84262 11.136 2.73131 11.0422 2.63756C10.9485 2.5438 10.8372 2.46943 10.7147 2.41868C10.5923 2.36794 10.461 2.34183 10.3284 2.34183C10.1959 2.34183 10.0646 2.36794 9.94213 2.41868C9.81966 2.46943 9.70837 2.5438 9.61464 2.63756L4.96737 7.28583C4.57251 7.68078 4.57251 8.31877 4.96737 8.71373L9.61464 13.362C9.7083 13.4559 9.81956 13.5304 9.94205 13.5812C10.0645 13.632 10.1958 13.6582 10.3284 13.6582C10.461 13.6582 10.5923 13.632 10.7148 13.5812C10.8373 13.5304 10.9486 13.4559 11.0422 13.362C11.427 12.967 11.4371 12.3189 11.0422 11.924Z" fill="#5F5F5F"/>
</g>
<defs>
<clipPath id="clip0_627_3335">
<rect width="16" height="16" fill="white"/>
</clipPath>
</defs>
</svg>
