<svg width="20" height="20" viewBox="0 0 20 20" fill="none" xmlns="http://www.w3.org/2000/svg">
<g clip-path="url(#clip0_1397_13051)">
<path fill-rule="evenodd" clip-rule="evenodd" d="M6.05644 3.88168C8.68066 3.65378 11.3197 3.65378 13.9439 3.88168L15.2023 3.99168C15.7872 4.0429 16.3379 4.28935 16.7658 4.69141C17.1937 5.09346 17.4739 5.62775 17.5614 6.20834C17.9394 8.72199 17.9394 11.278 17.5614 13.7917C17.5275 14.0122 17.4687 14.2217 17.3848 14.42C17.3298 14.5508 17.1598 14.5708 17.0631 14.4658L13.3789 10.4125C13.2975 10.3229 13.1917 10.2589 13.0745 10.2283C12.9574 10.1976 12.8338 10.2017 12.7189 10.24L10.6098 10.9433L7.5506 7.50168C7.49402 7.43801 7.42501 7.38658 7.34783 7.35055C7.27065 7.31452 7.18692 7.29464 7.10177 7.29215C7.01663 7.28965 6.93188 7.30458 6.85272 7.33603C6.77355 7.36747 6.70166 7.41477 6.64144 7.47501L2.54644 11.57C2.51862 11.5986 2.48306 11.6185 2.44412 11.6271C2.40518 11.6358 2.36456 11.633 2.32722 11.6189C2.28989 11.6048 2.25747 11.5802 2.23395 11.548C2.21042 11.5157 2.1968 11.4774 2.19477 11.4375C2.09622 9.69045 2.17776 7.93788 2.4381 6.20751C2.52562 5.62692 2.80586 5.09263 3.23377 4.69057C3.66167 4.28852 4.21236 4.04206 4.79727 3.99084L6.05644 3.88168ZM11.6664 7.50001C11.6664 7.16849 11.7981 6.85055 12.0326 6.61613C12.267 6.38171 12.5849 6.25001 12.9164 6.25001C13.248 6.25001 13.5659 6.38171 13.8003 6.61613C14.0347 6.85055 14.1664 7.16849 14.1664 7.50001C14.1664 7.83153 14.0347 8.14947 13.8003 8.38389C13.5659 8.61831 13.248 8.75001 12.9164 8.75001C12.5849 8.75001 12.267 8.61831 12.0326 8.38389C11.7981 8.14947 11.6664 7.83153 11.6664 7.50001Z" fill="white"/>
<path d="M2.46751 13.4167C2.445 13.4394 2.42803 13.467 2.41792 13.4974C2.4078 13.5277 2.40481 13.56 2.40918 13.5917L2.43834 13.7917C2.52586 14.3723 2.8061 14.9066 3.234 15.3086C3.66191 15.7107 4.21259 15.9571 4.79751 16.0083L6.05584 16.1175C8.68084 16.3458 11.3192 16.3458 13.9442 16.1175L15.2025 16.0083C15.5477 15.9792 15.8836 15.8808 16.19 15.7192C16.3042 15.66 16.3233 15.5092 16.2367 15.4142L12.82 11.6558C12.7929 11.6257 12.7575 11.6041 12.7183 11.5937C12.6791 11.5834 12.6377 11.5847 12.5992 11.5975L10.6142 12.2592C10.4981 12.2979 10.3733 12.3018 10.255 12.2702C10.1368 12.2387 10.0305 12.1731 9.94918 12.0817L7.20334 8.99252C7.18444 8.97129 7.16139 8.95415 7.13562 8.94216C7.10984 8.93018 7.08189 8.92359 7.05348 8.92281C7.02506 8.92203 6.99679 8.92707 6.9704 8.93762C6.944 8.94818 6.92005 8.96402 6.90001 8.98418L2.46751 13.4167Z" fill="white"/>
</g>
<defs>
<clipPath id="clip0_1397_13051">
<rect width="20" height="20" fill="white"/>
</clipPath>
</defs>
</svg>
