<svg width="20" height="20" viewBox="0 0 20 20" fill="none" xmlns="http://www.w3.org/2000/svg">
<g clip-path="url(#clip0_638_3326)">
<path d="M10.0003 1.66501C14.6037 1.66501 18.3353 5.39668 18.3353 10C18.3353 14.6025 14.6037 18.3333 10.0003 18.3333C5.39699 18.3333 1.66699 14.6025 1.66699 10C1.66616 5.39668 5.39699 1.66501 10.0003 1.66501ZM9.99699 8.54001C9.79277 8.54029 9.59576 8.61555 9.44337 8.7515C9.29097 8.88746 9.19381 9.07464 9.17033 9.27751L9.16449 9.37418L9.16783 13.9592L9.17283 14.0558C9.19611 14.2591 9.29336 14.4467 9.44604 14.5829C9.59872 14.7191 9.79615 14.7943 10.0007 14.7943C10.2053 14.7943 10.4028 14.7191 10.5554 14.5829C10.7081 14.4467 10.8054 14.2591 10.8287 14.0558L10.8337 13.9583L10.8303 9.37334L10.8245 9.27584C10.8004 9.07314 10.7028 8.88633 10.5501 8.75085C10.3974 8.61537 10.2003 8.54064 9.99616 8.54084M10.0003 5.41668C9.72373 5.41668 9.45846 5.52655 9.26287 5.72214C9.06729 5.91772 8.95741 6.18299 8.95741 6.45959C8.95741 6.73619 9.06729 7.00146 9.26287 7.19705C9.45846 7.39263 9.72373 7.50251 10.0003 7.50251C10.2769 7.50251 10.5422 7.39263 10.7378 7.19705C10.9334 7.00146 11.0432 6.73619 11.0432 6.45959C11.0432 6.18299 10.9334 5.91772 10.7378 5.72214C10.5422 5.52655 10.2769 5.41668 10.0003 5.41668Z" fill="white"/>
</g>
<defs>
<clipPath id="clip0_638_3326">
<rect width="20" height="20" fill="white"/>
</clipPath>
</defs>
</svg>
