<svg width="20" height="20" viewBox="0 0 20 20" fill="none" xmlns="http://www.w3.org/2000/svg">
<g clip-path="url(#clip0_1675_13430)">
<path d="M10 10C11.1603 10 12.2731 9.53906 13.0936 8.71859C13.9141 7.89812 14.375 6.78532 14.375 5.625C14.375 4.46468 13.9141 3.35188 13.0936 2.53141C12.2731 1.71094 11.1603 1.25 10 1.25C8.83968 1.25 7.72688 1.71094 6.90641 2.53141C6.08594 3.35188 5.625 4.46468 5.625 5.625C5.625 6.78532 6.08594 7.89812 6.90641 8.71859C7.72688 9.53906 8.83968 10 10 10ZM4.6875 11.25C4.10734 11.25 3.55094 11.4805 3.1407 11.8907C2.73047 12.3009 2.5 12.8573 2.5 13.4375V13.75C2.5 15.2456 3.45187 16.5106 4.80312 17.3706C6.16188 18.2356 8.00125 18.75 10 18.75C11.9987 18.75 13.8375 18.2356 15.1969 17.3706C16.5481 16.5106 17.5 15.2456 17.5 13.75V13.4375C17.5 12.8573 17.2695 12.3009 16.8593 11.8907C16.4491 11.4805 15.8927 11.25 15.3125 11.25H4.6875Z" fill="white"/>
</g>
<defs>
<clipPath id="clip0_1675_13430">
<rect width="20" height="20" fill="white"/>
</clipPath>
</defs>
</svg>
