<svg width="32" height="32" viewBox="0 0 32 32" fill="none" xmlns="http://www.w3.org/2000/svg">
<path d="M21.9967 5.33325C22.9379 5.33325 23.8207 5.50815 24.6453 5.85796C25.4698 6.20776 26.1861 6.69083 26.7941 7.30715C27.4021 7.92347 27.8851 8.6439 28.2433 9.46844C28.6014 10.293 28.7805 11.1758 28.7805 12.117C28.7805 12.6 28.7305 13.0789 28.6305 13.5537C28.5306 14.0284 28.3807 14.4865 28.1808 14.9279H22.3965L19.9979 12.4293L16.0001 16.4271L10.4032 10.8302L6.40545 14.9279H3.81939C3.6195 14.4865 3.46959 14.0284 3.36964 13.5537C3.2697 13.0789 3.21973 12.6 3.21973 12.117C3.21973 11.1758 3.39463 10.293 3.74443 9.46844C4.09424 8.6439 4.5773 7.92764 5.19362 7.31964C5.80995 6.71165 6.53038 6.22859 7.35492 5.87045C8.17946 5.51232 9.0623 5.33325 10.0034 5.33325C10.9113 5.33325 11.7775 5.50399 12.602 5.84547C13.4265 6.18694 14.1636 6.67833 14.8133 7.31964L16.0001 8.51897L17.1869 7.31964C17.8282 6.67833 18.5612 6.18694 19.3857 5.84547C20.2102 5.50399 21.0806 5.33325 21.9967 5.33325ZM20.7974 16.527H27.1689L26.994 16.7269C26.9357 16.7935 26.8732 16.8643 26.8066 16.9393L16.0001 27.7333L5.19362 16.9393C5.127 16.8726 5.06453 16.806 5.00623 16.7394C4.94793 16.6728 4.88963 16.602 4.83133 16.527H8.00456L10.4032 14.2283L16.0001 19.8252L19.9979 15.8274L20.7974 16.527Z" fill="#40BA21"/>
</svg>
