<svg width="20" height="20" viewBox="0 0 20 20" fill="none" xmlns="http://www.w3.org/2000/svg">
<g clip-path="url(#clip0_4114_20332)">
<path d="M8.97875 2.64127C9.05032 2.58279 9.13397 2.54091 9.22367 2.51865C9.31337 2.49638 9.40689 2.49429 9.4975 2.51252L15.7475 3.76252C15.8891 3.79083 16.0166 3.86732 16.1082 3.97898C16.1998 4.09065 16.2499 4.23059 16.25 4.37502V15.6213C16.2499 15.7657 16.1998 15.9057 16.1082 16.0173C16.0166 16.129 15.8891 16.2055 15.7475 16.2338L9.4975 17.4838C9.40686 17.5019 9.31333 17.4997 9.22365 17.4773C9.13397 17.4549 9.05037 17.4129 8.97887 17.3543C8.90738 17.2957 8.84977 17.222 8.81019 17.1385C8.77061 17.055 8.75006 16.9637 8.75 16.8713V3.12502M12.5 9.99752C12.5 9.83176 12.4342 9.67279 12.3169 9.55558C12.1997 9.43837 12.0408 9.37252 11.875 9.37252C11.7092 9.37252 11.5503 9.43837 11.4331 9.55558C11.3158 9.67279 11.25 9.83176 11.25 9.99752C11.25 10.1633 11.3158 10.3223 11.4331 10.4395C11.5503 10.5567 11.7092 10.6225 11.875 10.6225C12.0408 10.6225 12.1997 10.5567 12.3169 10.4395C12.4342 10.3223 12.5 10.1633 12.5 9.99752ZM7.5 3.75002H4.375C4.20924 3.75002 4.05027 3.81587 3.93306 3.93308C3.81585 4.05029 3.75 4.20926 3.75 4.37502V15.6213C3.75 15.787 3.81585 15.946 3.93306 16.0632C4.05027 16.1804 4.20924 16.2463 4.375 16.2463H7.5V3.75002ZM8.97875 2.64127C8.90719 2.69994 8.84954 2.77377 8.80999 2.85743C8.77043 2.94109 8.74994 3.03248 8.75 3.12502L8.97875 2.64127Z" fill="white"/>
</g>
<defs>
<clipPath id="clip0_4114_20332">
<rect width="20" height="20" fill="white"/>
</clipPath>
</defs>
</svg>
