<svg width="16" height="16" viewBox="0 0 16 16" fill="none" xmlns="http://www.w3.org/2000/svg">
<path d="M13.8832 7.22037L13.8789 7.21848L2.48903 2.44918C2.39322 2.4087 2.28898 2.39282 2.18561 2.40297C2.08225 2.41312 1.98298 2.44898 1.8967 2.50734C1.80555 2.56764 1.73067 2.64987 1.67881 2.74664C1.62695 2.84341 1.59973 2.95168 1.59961 3.0617V6.11191C1.59966 6.26232 1.65168 6.408 1.74671 6.52384C1.84174 6.63969 1.97382 6.71843 2.12019 6.74651L8.33224 7.90612C8.35665 7.91079 8.37868 7.92392 8.39453 7.94324C8.41037 7.96255 8.41905 7.98685 8.41905 8.01193C8.41905 8.03702 8.41037 8.06131 8.39453 8.08063C8.37868 8.09995 8.35665 8.11307 8.33224 8.11774L2.12046 9.27736C1.97413 9.30536 1.84206 9.384 1.74699 9.49974C1.65191 9.61548 1.5998 9.76106 1.59961 9.91142V12.9622C1.59954 13.0672 1.62531 13.1707 1.6746 13.2632C1.72389 13.3557 1.79517 13.4344 1.88204 13.4923C1.98653 13.5624 2.10915 13.5998 2.2346 13.6C2.32182 13.5999 2.40814 13.5823 2.48849 13.548L13.8781 8.80592L13.8832 8.8035C14.0365 8.73698 14.1671 8.62655 14.2589 8.48586C14.3507 8.34517 14.3996 8.1804 14.3996 8.01193C14.3996 7.84347 14.3507 7.6787 14.2589 7.53801C14.1671 7.39732 14.0365 7.28689 13.8832 7.22037Z" fill="#5F5F5F"/>
</svg>
