<svg width="20" height="20" viewBox="0 0 20 20" fill="none" xmlns="http://www.w3.org/2000/svg">
<g clip-path="url(#clip0_906_8320)">
<path fill-rule="evenodd" clip-rule="evenodd" d="M1.66699 10C1.66699 7.78988 2.54497 5.67027 4.10777 4.10746C5.67057 2.54466 7.79019 1.66669 10.0003 1.66669C12.2105 1.66669 14.3301 2.54466 15.8929 4.10746C17.4557 5.67027 18.3337 7.78988 18.3337 10C18.3337 12.2102 17.4557 14.3298 15.8929 15.8926C14.3301 17.4554 12.2105 18.3334 10.0003 18.3334C7.79019 18.3334 5.67057 17.4554 4.10777 15.8926C2.54497 14.3298 1.66699 12.2102 1.66699 10ZM9.52477 13.5667L14.3225 7.56891L13.4559 6.87558L9.36477 11.9878L6.46699 9.57335L5.75588 10.4267L9.52477 13.5667Z" fill="white"/>
</g>
<defs>
<clipPath id="clip0_906_8320">
<rect width="20" height="20" fill="white"/>
</clipPath>
</defs>
</svg>
