<svg width="20" height="20" viewBox="0 0 20 20" fill="none" xmlns="http://www.w3.org/2000/svg">
<g clip-path="url(#clip0_1733_14841)">
<path d="M4.16699 4.85663H6.41699M6.41699 4.85663H7.91699M6.41699 4.85663V4.16663M9.16699 4.85663H7.91699M7.91699 4.85663C7.65366 5.79913 7.10033 6.69079 6.47033 7.47413L7.43449 8.47663M4.86366 9.16663C5.44009 8.64302 5.9771 8.07759 6.47033 7.47496C6.14949 7.09746 5.69949 6.48829 5.57033 6.21246M11.2503 15.8333L11.9445 14.1666M11.9445 14.1666L13.3337 10.8333L14.7228 14.1666M11.9445 14.1666H14.7228M15.417 15.8333L14.7228 14.1666" stroke="white" stroke-linecap="round" stroke-linejoin="round"/>
<path d="M11.667 8.33329V6.66663C11.667 4.30996 11.667 3.13079 10.9345 2.39913C10.2028 1.66663 9.02366 1.66663 6.66699 1.66663C4.31033 1.66663 3.13116 1.66663 2.39949 2.39913C1.66699 3.13079 1.66699 4.30996 1.66699 6.66663C1.66699 9.02329 1.66699 10.2025 2.39949 10.9341C3.13116 11.6666 4.31033 11.6666 6.66699 11.6666H8.33366" stroke="white" stroke-linecap="round" stroke-linejoin="round"/>
<path d="M3.33398 13.7499C3.33398 14.9199 3.33398 15.5058 3.61482 15.9258C3.73645 16.1078 3.89276 16.2641 4.07482 16.3858C4.49482 16.6666 5.08065 16.6666 6.25065 16.6666M16.6673 6.24992C16.6673 5.07992 16.6673 4.49409 16.3865 4.07409C16.2649 3.89203 16.1085 3.73571 15.9265 3.61409C15.5065 3.33325 14.9207 3.33325 13.7507 3.33325M8.33398 13.3333C8.33398 10.9766 8.33398 9.79742 9.06648 9.06575C9.79815 8.33325 10.9773 8.33325 13.334 8.33325C15.6907 8.33325 16.8698 8.33325 17.6015 9.06575C18.334 9.79742 18.334 10.9766 18.334 13.3333C18.334 15.6899 18.334 16.8691 17.6015 17.6008C16.8698 18.3333 15.6907 18.3333 13.334 18.3333C10.9773 18.3333 9.79815 18.3333 9.06648 17.6008C8.33398 16.8691 8.33398 15.6899 8.33398 13.3333Z" stroke="white" stroke-linecap="round" stroke-linejoin="round"/>
</g>
<defs>
<clipPath id="clip0_1733_14841">
<rect width="20" height="20" fill="white"/>
</clipPath>
</defs>
</svg>
