<svg width="20" height="20" viewBox="0 0 20 20" fill="none" xmlns="http://www.w3.org/2000/svg">
<g clip-path="url(#clip0_4236_22062)">
<path d="M4.76582 15.2338C4.70771 15.1758 4.66161 15.1068 4.63016 15.031C4.5987 14.9551 4.58252 14.8738 4.58252 14.7916C4.58252 14.7095 4.5987 14.6282 4.63016 14.5523C4.66161 14.4764 4.70771 14.4075 4.76582 14.3494L13.6994 5.41663H7.08301C6.91725 5.41663 6.75828 5.35078 6.64107 5.23357C6.52386 5.11636 6.45801 4.95739 6.45801 4.79163C6.45801 4.62587 6.52386 4.46689 6.64107 4.34968C6.75828 4.23247 6.91725 4.16663 7.08301 4.16663L15.208 4.16663C15.3738 4.16663 15.5327 4.23247 15.6499 4.34968C15.7672 4.46689 15.833 4.62587 15.833 4.79163V12.9166C15.833 13.0824 15.7672 13.2414 15.6499 13.3586C15.5327 13.4758 15.3738 13.5416 15.208 13.5416C15.0422 13.5416 14.8833 13.4758 14.7661 13.3586C14.6489 13.2414 14.583 13.0824 14.583 12.9166V6.30022L5.6502 15.2338C5.59215 15.2919 5.52322 15.338 5.44735 15.3695C5.37147 15.4009 5.29014 15.4171 5.20801 15.4171C5.12587 15.4171 5.04454 15.4009 4.96867 15.3695C4.8928 15.338 4.82387 15.2919 4.76582 15.2338Z" fill="white"/>
</g>
<defs>
<clipPath id="clip0_4236_22062">
<rect width="20" height="20" fill="white"/>
</clipPath>
</defs>
</svg>
