<svg width="16" height="16" viewBox="0 0 16 16" fill="none" xmlns="http://www.w3.org/2000/svg">
<g clip-path="url(#clip0_538_2198)">
<path d="M1.63556 5.293C1.82309 5.10553 2.0774 5.00021 2.34256 5.00021C2.60772 5.00021 2.86203 5.10553 3.04956 5.293L7.99956 10.243L12.9496 5.293C13.1382 5.11084 13.3908 5.01005 13.653 5.01233C13.9152 5.0146 14.166 5.11977 14.3514 5.30518C14.5368 5.49059 14.642 5.7414 14.6442 6.0036C14.6465 6.2658 14.5457 6.5184 14.3636 6.707L8.70656 12.364C8.51903 12.5515 8.26472 12.6568 7.99956 12.6568C7.7344 12.6568 7.48009 12.5515 7.29256 12.364L1.63556 6.707C1.44809 6.51947 1.34277 6.26516 1.34277 6C1.34277 5.73484 1.44809 5.48053 1.63556 5.293Z" fill="#5F5F5F"/>
</g>
<defs>
<clipPath id="clip0_538_2198">
<rect width="16" height="16" fill="white"/>
</clipPath>
</defs>
</svg>
