<svg width="32" height="32" viewBox="0 0 32 32" fill="none" xmlns="http://www.w3.org/2000/svg">
<path d="M18.6494 15.4999C18.6986 15.4999 18.7468 15.4854 18.7878 15.4582C18.8289 15.431 18.8609 15.3922 18.88 15.3468C18.8991 15.3014 18.9044 15.2514 18.8952 15.203C18.8859 15.1546 18.8626 15.1101 18.8281 15.0749L13.9281 10.0924C13.8933 10.057 13.8487 10.0329 13.8001 10.0229C13.7515 10.0129 13.701 10.0177 13.6551 10.0365C13.6092 10.0554 13.5699 10.0874 13.5423 10.1287C13.5147 10.1699 13.5 10.2184 13.5 10.268V14.7499C13.5 14.9488 13.579 15.1396 13.7197 15.2802C13.8603 15.4209 14.0511 15.4999 14.25 15.4999H18.6494Z" fill="#40BA21"/>
<path d="M12.3125 16.6874C12.0558 16.4341 11.8518 16.1325 11.7124 15.8C11.5729 15.4674 11.5007 15.1105 11.5 14.7499V8.9999H7C5.9401 9.00304 4.9245 9.42547 4.17503 10.1749C3.42557 10.9244 3.00313 11.94 3 12.9999V26.9999C3 28.0608 3.42143 29.0782 4.17157 29.8283C4.92172 30.5785 5.93913 30.9999 7 30.9999H16C17.0609 30.9999 18.0783 30.5785 18.8284 29.8283C19.5786 29.0782 20 28.0608 20 26.9999V17.4999H14.25C13.8894 17.4994 13.5324 17.4274 13.1998 17.2879C12.8672 17.1484 12.5656 16.9443 12.3125 16.6874ZM23.25 7.4999H27.6494C27.6986 7.49995 27.7468 7.48544 27.7878 7.45821C27.8289 7.43097 27.8609 7.39223 27.88 7.34683C27.8991 7.30143 27.9044 7.2514 27.8952 7.20302C27.8859 7.15465 27.8626 7.11008 27.8281 7.0749L22.9281 2.0924C22.8933 2.05705 22.8487 2.03285 22.8001 2.0229C22.7515 2.01295 22.701 2.01769 22.6551 2.03653C22.6092 2.05536 22.5699 2.08743 22.5423 2.12866C22.5147 2.16989 22.5 2.2184 22.5 2.26803V6.7499C22.5 6.94882 22.579 7.13958 22.7197 7.28023C22.8603 7.42089 23.0511 7.4999 23.25 7.4999Z" fill="#40BA21"/>
<path d="M23.25 9.5C22.5224 9.49444 21.8261 9.20293 21.3116 8.6884C20.7971 8.17388 20.5056 7.47763 20.5 6.75V1H13.75C12.7558 1.00116 11.8026 1.39662 11.0996 2.09963C10.3966 2.80264 10.0012 3.75579 10 4.75V7H12.6325C12.9685 7.00131 13.301 7.06902 13.6107 7.19923C13.9205 7.32944 14.2015 7.51959 14.4375 7.75875L21.26 14.6962C21.736 15.1791 22.0018 15.8307 21.9994 16.5088V25H25.315C27.3469 25 28.9994 23.3175 28.9994 21.25V9.5H23.25Z" fill="#40BA21"/>
</svg>
