<svg width="30" height="30" viewBox="0 0 30 30" fill="none" xmlns="http://www.w3.org/2000/svg">
<path d="M23.0854 24.3474C20.8153 26.3201 17.9079 27.4044 14.9004 27.3999C11.8929 27.4044 8.9855 26.3201 6.7154 24.3474L14.4592 16.6443C14.5763 16.5277 14.7348 16.4622 14.9001 16.4622C15.0654 16.4622 15.2239 16.5277 15.341 16.6443L23.0854 24.3474ZM24.2004 23.2524L16.4429 15.5374C16.033 15.1298 15.4785 14.901 14.9004 14.901C14.3223 14.901 13.7678 15.1298 13.3579 15.5374L5.6004 23.2524C3.53643 20.9604 2.39619 17.9842 2.4004 14.8999C2.4004 7.99615 7.99665 2.3999 14.9004 2.3999C21.8042 2.3999 27.4004 7.99615 27.4004 14.8999C27.4004 18.1105 26.1898 21.0387 24.2004 23.2524ZM21.7754 10.5249C21.7754 9.86186 21.512 9.22598 21.0432 8.75714C20.5743 8.28829 19.9384 8.0249 19.2754 8.0249C18.6124 8.0249 17.9765 8.28829 17.5076 8.75714C17.0388 9.22598 16.7754 9.86186 16.7754 10.5249C16.7754 11.1879 17.0388 11.8238 17.5076 12.2927C17.9765 12.7615 18.6124 13.0249 19.2754 13.0249C19.9384 13.0249 20.5743 12.7615 21.0432 12.2927C21.512 11.8238 21.7754 11.1879 21.7754 10.5249Z" fill="#C6C7C1"/>
</svg>
