<svg width="20" height="20" viewBox="0 0 20 20" fill="none" xmlns="http://www.w3.org/2000/svg">
<path d="M1.17969 10C2.00876 8.37372 3.27133 7.00833 4.82786 6.05471C6.38439 5.1011 8.17427 4.59641 9.99969 4.59641C11.8251 4.59641 13.615 5.1011 15.1715 6.05471C16.728 7.00833 17.9906 8.37372 18.8197 10C17.9906 11.6263 16.728 12.9917 15.1715 13.9453C13.615 14.8989 11.8251 15.4036 9.99969 15.4036C8.17427 15.4036 6.38439 14.8989 4.82786 13.9453C3.27133 12.9917 2.00876 11.6263 1.17969 10ZM9.99969 13.6C10.9545 13.6 11.8701 13.2207 12.5453 12.5456C13.2204 11.8705 13.5997 10.9548 13.5997 10C13.5997 9.04523 13.2204 8.12955 12.5453 7.45442C11.8701 6.77929 10.9545 6.40001 9.99969 6.40001C9.04491 6.40001 8.12923 6.77929 7.4541 7.45442C6.77897 8.12955 6.39969 9.04523 6.39969 10C6.39969 10.9548 6.77897 11.8705 7.4541 12.5456C8.12923 13.2207 9.04491 13.6 9.99969 13.6ZM9.99969 11.8C9.5223 11.8 9.06446 11.6104 8.7269 11.2728C8.38933 10.9352 8.19969 10.4774 8.19969 10C8.19969 9.52262 8.38933 9.06478 8.7269 8.72721C9.06446 8.38965 9.5223 8.20001 9.99969 8.20001C10.4771 8.20001 10.9349 8.38965 11.2725 8.72721C11.61 9.06478 11.7997 9.52262 11.7997 10C11.7997 10.4774 11.61 10.9352 11.2725 11.2728C10.9349 11.6104 10.4771 11.8 9.99969 11.8Z" fill="white"/>
</svg>
