<svg width="20" height="20" viewBox="0 0 20 20" fill="none" xmlns="http://www.w3.org/2000/svg">
<g clip-path="url(#clip0_1462_13960)">
<g clip-path="url(#clip1_1462_13960)">
<path d="M9.99967 5.83331C7.69967 5.83331 5.83301 7.69998 5.83301 9.99998C5.83301 12.3 7.69967 14.1666 9.99967 14.1666C12.2997 14.1666 14.1663 12.3 14.1663 9.99998C14.1663 7.69998 12.2997 5.83331 9.99967 5.83331ZM1.66634 10.8333H3.33301C3.79134 10.8333 4.16634 10.4583 4.16634 9.99998C4.16634 9.54165 3.79134 9.16665 3.33301 9.16665H1.66634C1.20801 9.16665 0.833008 9.54165 0.833008 9.99998C0.833008 10.4583 1.20801 10.8333 1.66634 10.8333ZM16.6663 10.8333H18.333C18.7913 10.8333 19.1663 10.4583 19.1663 9.99998C19.1663 9.54165 18.7913 9.16665 18.333 9.16665H16.6663C16.208 9.16665 15.833 9.54165 15.833 9.99998C15.833 10.4583 16.208 10.8333 16.6663 10.8333ZM9.16634 1.66665V3.33331C9.16634 3.79165 9.54134 4.16665 9.99967 4.16665C10.458 4.16665 10.833 3.79165 10.833 3.33331V1.66665C10.833 1.20831 10.458 0.833313 9.99967 0.833313C9.54134 0.833313 9.16634 1.20831 9.16634 1.66665ZM9.16634 16.6666V18.3333C9.16634 18.7916 9.54134 19.1666 9.99967 19.1666C10.458 19.1666 10.833 18.7916 10.833 18.3333V16.6666C10.833 16.2083 10.458 15.8333 9.99967 15.8333C9.54134 15.8333 9.16634 16.2083 9.16634 16.6666ZM4.99134 3.81665C4.91425 3.73939 4.82267 3.6781 4.72186 3.63629C4.62105 3.59447 4.51298 3.57294 4.40384 3.57294C4.2947 3.57294 4.18663 3.59447 4.08582 3.63629C3.98501 3.6781 3.89344 3.73939 3.81634 3.81665C3.73909 3.89374 3.6778 3.98532 3.63598 4.08613C3.59416 4.18694 3.57264 4.29501 3.57264 4.40415C3.57264 4.51329 3.59416 4.62136 3.63598 4.72217C3.6778 4.82298 3.73909 4.91455 3.81634 4.99165L4.69967 5.87498C5.02467 6.19998 5.55801 6.19998 5.87467 5.87498C6.19134 5.54998 6.19968 5.01665 5.87467 4.69998L4.99134 3.81665ZM15.2997 14.125C15.2226 14.0477 15.131 13.9864 15.0302 13.9446C14.9294 13.9028 14.8213 13.8813 14.7122 13.8813C14.603 13.8813 14.495 13.9028 14.3942 13.9446C14.2933 13.9864 14.2018 14.0477 14.1247 14.125C14.0474 14.2021 13.9861 14.2936 13.9443 14.3945C13.9025 14.4953 13.881 14.6033 13.881 14.7125C13.881 14.8216 13.9025 14.9297 13.9443 15.0305C13.9861 15.1313 14.0474 15.2229 14.1247 15.3L15.008 16.1833C15.333 16.5083 15.8663 16.5083 16.183 16.1833C16.2603 16.1062 16.3216 16.0146 16.3634 15.9138C16.4052 15.813 16.4267 15.705 16.4267 15.5958C16.4267 15.4867 16.4052 15.3786 16.3634 15.2778C16.3216 15.177 16.2603 15.0854 16.183 15.0083L15.2997 14.125ZM16.183 4.99165C16.2603 4.91455 16.3216 4.82298 16.3634 4.72217C16.4052 4.62136 16.4267 4.51329 16.4267 4.40415C16.4267 4.29501 16.4052 4.18694 16.3634 4.08613C16.3216 3.98532 16.2603 3.89374 16.183 3.81665C16.1059 3.73939 16.0143 3.6781 15.9135 3.63629C15.8127 3.59447 15.7046 3.57294 15.5955 3.57294C15.4864 3.57294 15.3783 3.59447 15.2775 3.63629C15.1767 3.6781 15.0851 3.73939 15.008 3.81665L14.1247 4.69998C13.7997 5.02498 13.7997 5.55831 14.1247 5.87498C14.4497 6.19165 14.983 6.19998 15.2997 5.87498L16.183 4.99165ZM5.87467 15.3C5.95193 15.2229 6.01322 15.1313 6.05504 15.0305C6.09685 14.9297 6.11838 14.8216 6.11838 14.7125C6.11838 14.6033 6.09685 14.4953 6.05504 14.3945C6.01322 14.2936 5.95193 14.2021 5.87467 14.125C5.79758 14.0477 5.70601 13.9864 5.6052 13.9446C5.50438 13.9028 5.39632 13.8813 5.28717 13.8813C5.17803 13.8813 5.06997 13.9028 4.96915 13.9446C4.86834 13.9864 4.77677 14.0477 4.69967 14.125L3.81634 15.0083C3.49134 15.3333 3.49134 15.8666 3.81634 16.1833C4.14134 16.5 4.67467 16.5083 4.99134 16.1833L5.87467 15.3Z" fill="white"/>
</g>
</g>
<defs>
<clipPath id="clip0_1462_13960">
<rect width="20" height="20" fill="white"/>
</clipPath>
<clipPath id="clip1_1462_13960">
<rect width="20" height="20" fill="white"/>
</clipPath>
</defs>
</svg>
